<svg xmlns="http://www.w3.org/2000/svg" version="1.1" xmlns:xlink="http://www.w3.org/1999/xlink" xmlns:svgjs="http://svgjs.dev/svgjs" width="2000" height="906" viewBox="0 0 2000 906"><g transform="matrix(1,0,0,1,0.21333333333336668,-0.5755764705880893)"><svg viewBox="0 0 375 170" data-background-color="#ffffff" preserveAspectRatio="xMidYMid meet" height="906" width="2000" xmlns="http://www.w3.org/2000/svg" xmlns:xlink="http://www.w3.org/1999/xlink"><g id="tight-bounds" transform="matrix(1,0,0,1,-0.03976000000000113,0.10821999999996024)"><svg viewBox="0 0 375.07953 169.78346" height="169.78346" width="375.07953"><g><svg></svg></g><g><svg viewBox="0 0 375.07953 169.78346" height="169.78346" width="375.07953"><g transform="matrix(1,0,0,1,-10.22024,-43.47922)"><path d="M10.22 203.721v-160.242h375.08v160.242l-13.16 0 0-5.391h7.769v-149.46h-364.298v149.46h18.475l0 5.391z" fill="#000000" fill-rule="nonzero" stroke="none" stroke-width="1" stroke-linecap="butt" stroke-linejoin="miter" stroke-miterlimit="10" stroke-dasharray="" stroke-dashoffset="0" font-family="none" font-weight="none" font-size="none" text-anchor="none" style="mix-blend-mode: normal" data-fill-palette-color="tertiary"></path><g><path d="M52.145 203.447v-10.299c0-0.612-0.051-1.076-0.153-1.392-0.102-0.313-0.275-0.537-0.52-0.673-0.248-0.136-0.602-0.221-1.061-0.255v0c-0.068-0.153-0.11-0.337-0.128-0.551-0.017-0.211-0.025-0.435-0.025-0.673v0c0.323 0.017 0.668 0.029 1.035 0.036 0.364 0.01 0.746 0.019 1.147 0.025 0.398 0.01 0.775 0.015 1.132 0.016v0c0.374 0 0.748-0.005 1.122-0.016 0.374-0.007 0.739-0.015 1.096-0.025 0.357-0.007 0.705-0.019 1.045-0.036v0c0 0.238-0.009 0.462-0.025 0.673-0.017 0.214-0.051 0.398-0.102 0.551v0c-0.442 0.034-0.794 0.119-1.055 0.255-0.265 0.136-0.449 0.36-0.551 0.673-0.102 0.316-0.153 0.78-0.153 1.392v0 10.299c0 0.595 0.051 1.054 0.153 1.377 0.102 0.323 0.286 0.552 0.551 0.688 0.262 0.136 0.614 0.221 1.055 0.255v0c0.051 0.136 0.085 0.309 0.102 0.52 0.017 0.214 0.025 0.449 0.025 0.704v0c-0.476-0.034-0.994-0.054-1.555-0.061-0.561-0.01-1.113-0.015-1.657-0.015v0c-0.561 0-1.147 0.005-1.759 0.015-0.612 0.007-1.147 0.027-1.606 0.061v0c0-0.255 0.014-0.489 0.041-0.704 0.024-0.211 0.061-0.384 0.112-0.52v0c0.459-0.034 0.812-0.119 1.061-0.255 0.245-0.136 0.418-0.365 0.52-0.688 0.102-0.323 0.153-0.782 0.153-1.377zM64.902 207.144v0c-1.054 0-1.839-0.272-2.356-0.816-0.52-0.544-0.78-1.436-0.78-2.677v0-6.577c-0.255-0.085-0.522-0.158-0.8-0.219-0.282-0.058-0.627-0.095-1.036-0.113v0c0-0.238 0.017-0.45 0.051-0.637 0.034-0.187 0.093-0.391 0.179-0.612v0h1.606v-3.288c0.408-0.085 0.812-0.229 1.214-0.434 0.398-0.204 0.733-0.425 1.004-0.663v0c0.187 0.068 0.314 0.178 0.382 0.332 0.068 0.153 0.102 0.51 0.102 1.07v0 2.983h3.264c0 0.204-0.017 0.416-0.051 0.638-0.034 0.221-0.093 0.433-0.179 0.637v0c-0.612 0-1.168 0.034-1.667 0.102-0.503 0.068-0.959 0.144-1.367 0.229v0 6.043c0 0.595 0.056 1.074 0.169 1.437 0.109 0.367 0.27 0.636 0.484 0.806 0.211 0.17 0.469 0.255 0.775 0.255v0c0.34 0 0.642-0.048 0.908-0.143 0.262-0.092 0.512-0.231 0.749-0.418v0c0.221 0.272 0.348 0.595 0.383 0.969v0c-0.289 0.306-0.722 0.564-1.301 0.775-0.578 0.214-1.156 0.321-1.733 0.321zM77.236 206.991v0c0-0.204 0.014-0.416 0.041-0.637 0.024-0.221 0.061-0.416 0.112-0.587v0c0.68-0.017 1.139-0.178 1.377-0.484 0.238-0.306 0.357-0.884 0.356-1.734v0-4.767c0-0.408-0.037-0.744-0.112-1.01-0.078-0.262-0.253-0.461-0.525-0.596-0.272-0.136-0.697-0.204-1.275-0.204v0c0-0.204 0.022-0.399 0.067-0.586 0.041-0.187 0.104-0.357 0.188-0.51v0c0.34 0 0.765-0.042 1.275-0.128 0.51-0.085 0.994-0.195 1.453-0.331 0.459-0.136 0.799-0.272 1.02-0.408v0c0.17 0.068 0.314 0.187 0.433 0.357 0.119 0.17 0.178 0.425 0.179 0.765v0 7.418c0 0.85 0.116 1.428 0.347 1.734 0.228 0.306 0.622 0.467 1.183 0.484v0c0.051 0.17 0.085 0.374 0.101 0.612 0.017 0.238 0.025 0.442 0.026 0.612v0c-0.272-0.017-0.578-0.029-0.918-0.036-0.34-0.01-0.697-0.019-1.071-0.025-0.374-0.01-0.739-0.015-1.096-0.015v0c-0.374 0-0.751 0.005-1.132 0.015-0.384 0.007-0.75 0.015-1.096 0.025-0.35 0.007-0.661 0.019-0.933 0.036zM80.244 192.383v0c-0.493 0-0.896-0.15-1.208-0.449-0.316-0.296-0.474-0.665-0.474-1.106v0c0-0.51 0.17-0.918 0.509-1.224 0.34-0.306 0.739-0.459 1.199-0.459v0c0.527 0 0.943 0.153 1.249 0.459 0.306 0.306 0.459 0.705 0.459 1.198v0c0 0.425-0.165 0.794-0.495 1.107-0.333 0.316-0.746 0.474-1.239 0.474zM94.99 195.876v0c-0.017 0.425-0.025 0.867-0.025 1.325 0 0.459 0.034 0.909 0.102 1.352v0c-0.187 0.102-0.411 0.182-0.674 0.239-0.265 0.061-0.534 0.092-0.805 0.092v0c-0.034-0.459-0.165-0.892-0.393-1.3-0.231-0.408-0.542-0.739-0.933-0.994-0.391-0.255-0.858-0.382-1.402-0.383v0c-0.493 0-0.884 0.119-1.173 0.357-0.289 0.238-0.433 0.552-0.433 0.943v0c0 0.272 0.059 0.513 0.178 0.724 0.119 0.214 0.391 0.444 0.816 0.689 0.425 0.248 1.079 0.551 1.963 0.907v0c0.935 0.34 1.666 0.683 2.193 1.03 0.527 0.35 0.906 0.733 1.137 1.147 0.228 0.418 0.342 0.933 0.341 1.545v0c0 0.714-0.207 1.343-0.622 1.887-0.418 0.544-0.996 0.964-1.733 1.259-0.741 0.299-1.579 0.449-2.514 0.449v0c-1.037 0-1.864-0.082-2.483-0.245-0.622-0.16-1.239-0.384-1.851-0.673v0c0.051-0.289 0.082-0.629 0.092-1.019 0.007-0.391 0.01-0.778 0.01-1.163 0-0.381-0.017-0.707-0.051-0.979v0c0.153-0.119 0.374-0.204 0.663-0.255 0.289-0.051 0.569-0.076 0.841-0.076v0c0.136 1.037 0.456 1.81 0.959 2.32 0.5 0.51 1.166 0.765 1.998 0.764v0c0.629 0 1.127-0.141 1.494-0.423 0.364-0.279 0.546-0.648 0.546-1.106v0c0-0.289-0.071-0.544-0.214-0.765-0.146-0.221-0.406-0.439-0.78-0.653-0.374-0.211-0.935-0.461-1.683-0.749v0c-0.884-0.357-1.601-0.697-2.152-1.02-0.554-0.323-0.959-0.71-1.213-1.163-0.255-0.449-0.382-1.021-0.383-1.718v0c0-0.544 0.136-1.02 0.408-1.428 0.272-0.408 0.625-0.744 1.061-1.009 0.432-0.262 0.908-0.457 1.428-0.586 0.517-0.126 1.013-0.189 1.488-0.189v0c0.816 0 1.521 0.071 2.116 0.214 0.595 0.146 1.156 0.364 1.683 0.653zM105.489 206.991v0c0-0.255 0.014-0.484 0.04-0.688 0.024-0.204 0.061-0.382 0.112-0.536v0c0.68-0.034 1.139-0.201 1.377-0.499 0.238-0.296 0.357-0.869 0.357-1.719v0-4.64c0-0.459-0.037-0.824-0.112-1.096-0.078-0.272-0.253-0.476-0.525-0.612-0.272-0.136-0.688-0.212-1.249-0.229v0c0-0.204 0.017-0.396 0.051-0.576 0.034-0.177 0.093-0.35 0.178-0.52v0c0.357-0.017 0.773-0.073 1.249-0.169 0.476-0.092 0.935-0.202 1.377-0.331 0.442-0.126 0.782-0.248 1.02-0.367v0c0.153 0.051 0.294 0.161 0.423 0.331 0.126 0.17 0.189 0.433 0.188 0.791v0c0 0.272-0.02 0.586-0.061 0.943-0.044 0.357-0.117 0.892-0.219 1.606v0l-0.229 0.025c0.255-0.697 0.442-1.169 0.56-1.417 0.119-0.245 0.221-0.41 0.306-0.495v0c0.289-0.391 0.753-0.787 1.392-1.188 0.636-0.398 1.378-0.597 2.229-0.596v0c0.731 0 1.399 0.165 2.003 0.494 0.602 0.333 1.047 0.874 1.336 1.622v0c0.102 0.238 0.153 0.544 0.153 0.918v0h-0.102c0.187-0.493 0.399-0.884 0.638-1.173v0c0.289-0.374 0.739-0.756 1.351-1.147 0.612-0.391 1.343-0.586 2.192-0.587v0c0.697 0 1.326 0.136 1.887 0.408 0.561 0.272 1.008 0.714 1.341 1.326 0.33 0.612 0.495 1.436 0.494 2.473v0 4.002c0 0.646 0.051 1.139 0.153 1.479 0.102 0.34 0.26 0.573 0.475 0.699 0.211 0.129 0.495 0.211 0.851 0.244v0c0.051 0.17 0.085 0.352 0.102 0.546 0.017 0.197 0.025 0.423 0.026 0.678v0c-0.374-0.034-0.816-0.054-1.326-0.061-0.51-0.01-1.028-0.015-1.555-0.015v0c-0.357 0-0.726 0.005-1.107 0.015-0.384 0.007-0.758 0.015-1.121 0.025-0.367 0.007-0.695 0.019-0.985 0.036v0c0-0.272 0.009-0.506 0.026-0.704 0.017-0.194 0.051-0.367 0.102-0.52v0c0.442-0.034 0.787-0.119 1.035-0.255 0.245-0.136 0.415-0.374 0.51-0.713 0.092-0.34 0.138-0.807 0.138-1.403v0-3.467c0-1.173-0.199-1.968-0.597-2.386-0.401-0.415-0.925-0.622-1.57-0.622v0c-0.442 0-0.875 0.139-1.301 0.418-0.425 0.282-0.773 0.733-1.045 1.351-0.272 0.622-0.408 1.434-0.408 2.437v0 2.397c0 0.867 0.127 1.448 0.383 1.744 0.255 0.299 0.697 0.466 1.325 0.499v0c0.051 0.153 0.09 0.331 0.118 0.536 0.024 0.204 0.036 0.433 0.035 0.688v0c-0.425-0.034-0.926-0.054-1.504-0.061-0.578-0.01-1.13-0.015-1.657-0.015v0c-0.544 0-1.096 0.005-1.657 0.015-0.561 0.007-1.071 0.027-1.53 0.061v0c0-0.255 0.009-0.484 0.026-0.688 0.017-0.204 0.051-0.382 0.102-0.536v0c0.442-0.034 0.787-0.119 1.035-0.255 0.245-0.136 0.418-0.374 0.52-0.713 0.102-0.34 0.153-0.824 0.153-1.454v0-3.569c0-1.139-0.204-1.921-0.612-2.345-0.408-0.425-0.943-0.637-1.606-0.638v0c-0.425 0-0.85 0.148-1.275 0.444-0.425 0.299-0.773 0.758-1.045 1.377-0.272 0.622-0.408 1.426-0.408 2.411v0 2.499c0 0.85 0.119 1.428 0.357 1.733 0.238 0.306 0.688 0.476 1.351 0.51v0c0.051 0.17 0.085 0.352 0.102 0.546 0.017 0.197 0.025 0.423 0.026 0.678v0c-0.272-0.017-0.598-0.029-0.979-0.036-0.384-0.01-0.772-0.019-1.163-0.025-0.391-0.01-0.748-0.015-1.071-0.015v0c-0.306 0-0.658 0.005-1.055 0.015-0.401 0.007-0.789 0.015-1.163 0.025-0.374 0.007-0.697 0.019-0.969 0.036zM135.969 207.144v0c-1.207 0-2.257-0.252-3.151-0.755-0.891-0.5-1.579-1.2-2.065-2.1-0.483-0.901-0.724-1.963-0.724-3.187v0c0-1.19 0.258-2.243 0.775-3.161 0.52-0.918 1.231-1.637 2.132-2.157 0.901-0.517 1.921-0.775 3.059-0.775v0c1.275 0 2.354 0.255 3.238 0.765 0.884 0.51 1.555 1.215 2.014 2.116 0.459 0.901 0.688 1.955 0.688 3.161v0c0 1.173-0.246 2.221-0.739 3.146-0.493 0.928-1.186 1.652-2.081 2.172-0.891 0.517-1.939 0.775-3.146 0.775zM136.224 205.793v0c0.952 0 1.657-0.405 2.116-1.214 0.459-0.806 0.688-1.854 0.689-3.146v0c0-1.054-0.15-1.968-0.449-2.743-0.296-0.772-0.695-1.358-1.198-1.759-0.5-0.398-1.047-0.597-1.642-0.596v0c-0.935 0-1.632 0.391-2.091 1.172-0.459 0.782-0.688 1.785-0.688 3.009v0c0 1.088 0.131 2.031 0.393 2.829 0.265 0.799 0.644 1.406 1.137 1.821 0.493 0.418 1.071 0.627 1.733 0.627zM149.746 201.127v1.836c0 0.731 0.076 1.292 0.23 1.683 0.153 0.391 0.403 0.663 0.749 0.815 0.35 0.153 0.806 0.255 1.367 0.306v0c0.051 0.153 0.088 0.331 0.112 0.536 0.027 0.204 0.041 0.433 0.041 0.688v0c-0.272-0.017-0.595-0.029-0.969-0.036-0.374-0.01-0.773-0.019-1.198-0.025-0.425-0.01-0.85-0.015-1.275-0.015v0c-0.646 0-1.317 0.005-2.014 0.015-0.697 0.007-1.241 0.027-1.632 0.061v0c0-0.272 0.009-0.51 0.026-0.714 0.017-0.204 0.059-0.374 0.127-0.51v0c0.459-0.034 0.811-0.119 1.056-0.255 0.248-0.136 0.423-0.365 0.525-0.688 0.102-0.323 0.153-0.782 0.153-1.377v0-2.32zM149.287 199.113l0.459 0.332v2.065h-2.702v-2.83l2.702-2.473c0 0.527-0.051 1.02-0.153 1.479-0.102 0.459-0.204 0.935-0.306 1.427zM149.746 200.847l-0.56-1.581c0.17-0.459 0.309-0.853 0.418-1.183 0.112-0.333 0.228-0.602 0.346-0.805v0c0.374-0.595 0.819-1.088 1.336-1.479 0.52-0.391 1.12-0.586 1.8-0.586v0c0.646 0 1.232 0.204 1.759 0.612v0c-0.034 0.289-0.068 0.624-0.102 1.004-0.034 0.384-0.056 0.767-0.066 1.147-0.007 0.384-0.01 0.738-0.01 1.061v0c-0.187 0.068-0.433 0.127-0.74 0.178-0.306 0.051-0.612 0.076-0.917 0.077v0c-0.034-0.765-0.158-1.28-0.373-1.545-0.211-0.262-0.486-0.393-0.826-0.393v0c-0.272 0-0.574 0.161-0.907 0.485-0.33 0.323-0.605 0.748-0.826 1.274-0.221 0.527-0.331 1.105-0.332 1.734zM149.746 196.207l-2.702 5.303v-2.652c0-0.442-0.039-0.795-0.117-1.06-0.075-0.262-0.248-0.461-0.52-0.597-0.272-0.136-0.688-0.212-1.25-0.229v0c0-0.204 0.017-0.399 0.051-0.586 0.034-0.187 0.093-0.357 0.179-0.51v0c0.646-0.034 1.334-0.136 2.065-0.306 0.731-0.17 1.292-0.357 1.683-0.561v0c0.17 0.068 0.314 0.187 0.433 0.357 0.119 0.17 0.178 0.45 0.178 0.841zM163.268 207.144v0c-1.275 0-2.325-0.272-3.151-0.816-0.823-0.544-1.443-1.275-1.861-2.192-0.415-0.918-0.622-1.929-0.622-3.034v0c0-1.122 0.221-2.142 0.663-3.059 0.442-0.918 1.074-1.654 1.897-2.208 0.826-0.551 1.8-0.826 2.922-0.826v0c1.139 0 2.057 0.238 2.753 0.714 0.697 0.476 1.219 1.113 1.565 1.912 0.35 0.799 0.551 1.7 0.602 2.702v0c-0.068 0.391-0.212 0.714-0.434 0.969v0c-0.34 0-0.804 0-1.392 0-0.585 0-1.239 0.003-1.963 0.01-0.721 0.01-1.46 0.027-2.218 0.051-0.755 0.027-1.463 0.058-2.126 0.092v0-1.402h5.252c0-1.122-0.192-2.023-0.576-2.703-0.381-0.68-0.928-1.02-1.642-1.019v0c-0.408 0-0.799 0.127-1.173 0.382-0.374 0.255-0.68 0.683-0.917 1.285-0.238 0.605-0.357 1.443-0.357 2.514v0c0 0.85 0.11 1.661 0.331 2.432 0.221 0.775 0.595 1.404 1.122 1.886 0.527 0.486 1.275 0.729 2.243 0.729v0c0.561 0 1.117-0.119 1.668-0.356 0.554-0.238 1.044-0.578 1.468-1.02v0c0.136 0.068 0.267 0.195 0.393 0.382 0.129 0.187 0.202 0.365 0.219 0.536v0c-0.595 0.731-1.28 1.253-2.055 1.565-0.772 0.316-1.642 0.474-2.611 0.474zM182.18 207.144v0c-1.054 0-1.841-0.272-2.361-0.816-0.517-0.544-0.775-1.436-0.775-2.677v0-6.577c-0.255-0.085-0.523-0.158-0.805-0.219-0.279-0.058-0.622-0.095-1.03-0.113v0c0-0.238 0.017-0.45 0.051-0.637 0.034-0.187 0.093-0.391 0.178-0.612v0h1.606v-3.288c0.408-0.085 0.811-0.229 1.209-0.434 0.401-0.204 0.738-0.425 1.009-0.663v0c0.187 0.068 0.314 0.178 0.383 0.332 0.068 0.153 0.102 0.51 0.102 1.07v0 2.983h3.263c0 0.204-0.017 0.416-0.051 0.638-0.034 0.221-0.093 0.433-0.179 0.637v0c-0.612 0-1.169 0.034-1.672 0.102-0.5 0.068-0.953 0.144-1.361 0.229v0 6.043c0 0.595 0.054 1.074 0.163 1.437 0.112 0.367 0.274 0.636 0.484 0.806 0.214 0.17 0.474 0.255 0.78 0.255v0c0.34 0 0.641-0.048 0.903-0.143 0.265-0.092 0.517-0.231 0.754-0.418v0c0.221 0.272 0.348 0.595 0.383 0.969v0c-0.289 0.306-0.722 0.564-1.3 0.775-0.578 0.214-1.156 0.321-1.734 0.321zM200.317 199.292v4.257c0 0.867 0.119 1.453 0.356 1.76 0.238 0.306 0.603 0.459 1.097 0.458v0c0.051 0.17 0.088 0.348 0.112 0.536 0.027 0.187 0.041 0.416 0.041 0.688v0c-0.374-0.034-0.816-0.054-1.326-0.061-0.51-0.01-1.037-0.015-1.581-0.015v0c-0.34 0-0.714 0.005-1.121 0.015-0.408 0.007-0.79 0.015-1.148 0.025-0.357 0.007-0.671 0.019-0.943 0.036v0c0-0.255 0.009-0.484 0.026-0.688 0.017-0.204 0.059-0.382 0.127-0.536v0c0.578 0 1.003-0.161 1.275-0.484 0.272-0.323 0.408-0.918 0.408-1.785v0-3.543c0-1.173-0.209-1.972-0.627-2.397-0.415-0.425-0.953-0.637-1.617-0.637v0c-0.442 0-0.875 0.144-1.3 0.433-0.425 0.289-0.778 0.739-1.061 1.352-0.279 0.612-0.418 1.419-0.418 2.421v0 2.422c0 0.85 0.122 1.431 0.367 1.744 0.248 0.316 0.687 0.474 1.316 0.474v0c0.051 0.17 0.088 0.352 0.112 0.546 0.027 0.197 0.041 0.423 0.041 0.678v0c-0.255-0.017-0.561-0.029-0.918-0.036-0.357-0.01-0.731-0.019-1.122-0.025-0.391-0.01-0.773-0.015-1.147-0.015v0c-0.34 0-0.714 0.005-1.122 0.015-0.408 0.007-0.795 0.015-1.162 0.025-0.364 0.007-0.673 0.019-0.928 0.036v0c0-0.255 0.009-0.489 0.025-0.704 0.017-0.211 0.051-0.384 0.102-0.52v0c0.663 0 1.122-0.158 1.377-0.474 0.255-0.313 0.382-0.894 0.382-1.744v0-4.691l2.677-2.651c0 0.204-0.014 0.433-0.04 0.688-0.024 0.255-0.078 0.527-0.164 0.816v0c0.068-0.119 0.136-0.246 0.204-0.382 0.068-0.136 0.161-0.28 0.281-0.434v0c0.306-0.391 0.773-0.782 1.402-1.172 0.629-0.391 1.377-0.586 2.243-0.587v0c0.68 0 1.304 0.131 1.872 0.393 0.571 0.265 1.03 0.699 1.376 1.3 0.35 0.605 0.525 1.426 0.526 2.463zM189.94 193.199v-0.791c0-0.408-0.042-0.744-0.127-1.009-0.085-0.262-0.263-0.461-0.535-0.597-0.272-0.136-0.688-0.204-1.25-0.204v0c0-0.204 0.017-0.399 0.051-0.586 0.034-0.187 0.093-0.357 0.179-0.51v0c0.357 0 0.79-0.042 1.3-0.127 0.51-0.085 0.989-0.195 1.438-0.332 0.452-0.136 0.789-0.272 1.009-0.408v0c0.17 0.068 0.314 0.187 0.434 0.357 0.119 0.17 0.178 0.425 0.178 0.765v0 3.442zM189.94 199.317v-7.036h2.677v3.926zM213.023 207.144v0c-0.204-0.085-0.365-0.243-0.485-0.474-0.119-0.228-0.178-0.571-0.178-1.03v0c0-0.17 0.012-0.371 0.036-0.602 0.027-0.228 0.066-0.444 0.117-0.647v0h0.076c-0.068 0.323-0.201 0.646-0.397 0.969-0.194 0.323-0.435 0.612-0.724 0.866v0c-0.306 0.255-0.688 0.462-1.148 0.622-0.459 0.163-1.003 0.245-1.631 0.245v0c-1.088 0-1.926-0.241-2.514-0.724-0.585-0.486-0.877-1.163-0.877-2.029v0c0-0.663 0.156-1.229 0.469-1.698 0.316-0.466 0.724-0.857 1.224-1.173 0.503-0.313 1.052-0.563 1.647-0.749 0.595-0.187 1.185-0.337 1.769-0.449 0.588-0.109 1.12-0.197 1.596-0.265v0c0-0.646-0.014-1.156-0.041-1.53-0.024-0.374-0.075-0.675-0.153-0.902-0.075-0.231-0.189-0.432-0.341-0.602v0c-0.204-0.238-0.433-0.416-0.689-0.535-0.255-0.119-0.535-0.178-0.841-0.179v0c-0.544 0-0.969 0.165-1.275 0.495-0.306 0.333-0.527 0.724-0.663 1.172-0.136 0.452-0.221 0.874-0.254 1.265v0c-0.238 0-0.51-0.017-0.816-0.051-0.306-0.034-0.552-0.085-0.74-0.153v0c0.034-0.442 0.046-0.926 0.036-1.453-0.007-0.527-0.061-0.994-0.163-1.402v0c0.714-0.357 1.479-0.634 2.294-0.831 0.816-0.194 1.572-0.291 2.269-0.291v0c0.731 0 1.343 0.093 1.836 0.28 0.493 0.187 0.875 0.433 1.147 0.74v0c0.425 0.408 0.714 0.947 0.867 1.616 0.153 0.673 0.229 1.587 0.229 2.743v0 2.626c0 0.493 0.037 0.884 0.113 1.173 0.078 0.289 0.228 0.496 0.448 0.622 0.221 0.129 0.552 0.202 0.995 0.219v0c0.017 0.204 0.012 0.425-0.016 0.663-0.024 0.238-0.078 0.459-0.163 0.663v0c-0.476 0.017-0.994 0.093-1.555 0.229-0.561 0.136-1.062 0.323-1.504 0.561zM209.556 205.487v0c0.374 0 0.748-0.124 1.121-0.372 0.374-0.245 0.688-0.619 0.944-1.122 0.255-0.5 0.382-1.157 0.382-1.973v0-0.893c-0.442 0.068-0.892 0.153-1.351 0.255-0.459 0.102-0.88 0.246-1.265 0.434-0.381 0.187-0.687 0.433-0.917 0.739-0.228 0.306-0.342 0.714-0.342 1.224v0c0 0.595 0.144 1.028 0.433 1.3 0.289 0.272 0.62 0.408 0.995 0.408zM223.996 196.207l-2.703 5.303v-2.652c0-0.442-0.037-0.795-0.112-1.06-0.078-0.262-0.253-0.461-0.525-0.597-0.272-0.136-0.688-0.212-1.249-0.229v0c0-0.204 0.017-0.399 0.051-0.586 0.034-0.187 0.093-0.357 0.178-0.51v0c0.646-0.034 1.334-0.136 2.065-0.306 0.731-0.17 1.292-0.357 1.683-0.561v0c0.17 0.068 0.314 0.187 0.433 0.357 0.119 0.17 0.178 0.45 0.179 0.841zM231.695 199.292v4.257c0 0.867 0.116 1.453 0.346 1.76 0.228 0.306 0.597 0.459 1.107 0.458v0c0.051 0.17 0.085 0.348 0.102 0.536 0.017 0.187 0.025 0.416 0.025 0.688v0c-0.374-0.034-0.816-0.054-1.325-0.061-0.51-0.01-1.028-0.015-1.555-0.015v0c-0.357 0-0.734 0.005-1.132 0.015-0.401 0.007-0.78 0.015-1.137 0.025-0.357 0.007-0.671 0.019-0.944 0.036v0c0-0.255 0.009-0.484 0.026-0.688 0.017-0.204 0.059-0.382 0.127-0.536v0c0.561 0 0.977-0.161 1.249-0.484 0.272-0.323 0.408-0.918 0.408-1.785v0-3.543c0-1.173-0.204-1.972-0.611-2.397-0.408-0.425-0.952-0.637-1.632-0.637v0c-0.425 0-0.85 0.144-1.275 0.433-0.425 0.289-0.777 0.739-1.055 1.352-0.282 0.612-0.423 1.419-0.423 2.421v0 2.422c0 0.85 0.124 1.431 0.372 1.744 0.245 0.316 0.673 0.474 1.285 0.474v0c0.068 0.17 0.11 0.352 0.127 0.546 0.017 0.197 0.025 0.423 0.026 0.678v0c-0.238-0.017-0.535-0.029-0.893-0.036-0.357-0.01-0.731-0.019-1.121-0.025-0.391-0.01-0.773-0.015-1.148-0.015v0c-0.357 0-0.734 0.005-1.132 0.015-0.401 0.007-0.789 0.015-1.162 0.025-0.374 0.007-0.688 0.019-0.943 0.036v0c0-0.255 0.014-0.489 0.04-0.704 0.024-0.211 0.061-0.384 0.113-0.52v0c0.663 0 1.118-0.158 1.366-0.474 0.245-0.313 0.367-0.894 0.367-1.744v0-4.691l2.703-2.651c0 0.204-0.012 0.433-0.036 0.688-0.027 0.255-0.083 0.527-0.168 0.816v0c0.068-0.119 0.136-0.246 0.204-0.382 0.068-0.136 0.161-0.28 0.28-0.434v0c0.306-0.391 0.773-0.782 1.402-1.172 0.629-0.391 1.377-0.586 2.244-0.587v0c0.663 0 1.283 0.131 1.861 0.393 0.578 0.265 1.042 0.699 1.392 1.3 0.347 0.605 0.52 1.426 0.52 2.463zM242.907 213.263v0c-0.153-0.085-0.292-0.204-0.418-0.357-0.129-0.153-0.211-0.331-0.245-0.536v0c0.646-0.714 1.147-1.368 1.504-1.963 0.357-0.595 0.603-1.21 0.74-1.845 0.136-0.639 0.204-1.375 0.204-2.208v0-7.572c0-0.408-0.037-0.744-0.112-1.01-0.078-0.262-0.253-0.461-0.526-0.596-0.272-0.136-0.688-0.204-1.249-0.204v0c0-0.204 0.017-0.399 0.051-0.586 0.034-0.187 0.093-0.357 0.179-0.51v0c0.357 0 0.787-0.042 1.29-0.128 0.5-0.085 0.979-0.195 1.437-0.331 0.459-0.136 0.799-0.272 1.02-0.408v0c0.17 0.068 0.314 0.187 0.434 0.357 0.119 0.17 0.178 0.425 0.178 0.765v0 9.738c0 0.952-0.131 1.819-0.393 2.601-0.265 0.782-0.619 1.479-1.06 2.09-0.442 0.612-0.926 1.144-1.453 1.596-0.527 0.449-1.054 0.818-1.581 1.107zM245.813 192.383v0c-0.493 0-0.896-0.15-1.208-0.449-0.316-0.296-0.474-0.665-0.474-1.106v0c0-0.51 0.17-0.918 0.51-1.224 0.34-0.306 0.739-0.459 1.198-0.459v0c0.527 0 0.943 0.153 1.249 0.459 0.306 0.306 0.459 0.705 0.459 1.198v0c0 0.425-0.165 0.794-0.495 1.107-0.333 0.316-0.746 0.474-1.239 0.474zM256.429 207.017v0c-1.173 0-2.085-0.331-2.738-0.995-0.656-0.663-0.984-1.853-0.984-3.569v0-3.595c0-0.646-0.085-1.117-0.255-1.412-0.17-0.299-0.637-0.457-1.402-0.474v0c0-0.204 0.014-0.396 0.041-0.576 0.024-0.177 0.078-0.35 0.163-0.52v0c0.629-0.034 1.28-0.136 1.953-0.306 0.67-0.17 1.2-0.357 1.591-0.561v0c0.17 0.068 0.314 0.187 0.433 0.357 0.119 0.17 0.178 0.45 0.178 0.841v0 5.66c0 1.139 0.144 1.997 0.434 2.575 0.289 0.578 0.799 0.867 1.529 0.866v0c0.799 0 1.47-0.348 2.015-1.045 0.544-0.697 0.816-1.776 0.815-3.238v0-2.294c0-0.646-0.105-1.117-0.316-1.412-0.214-0.299-0.738-0.457-1.57-0.475v0c0-0.204 0.009-0.396 0.025-0.576 0.017-0.177 0.076-0.35 0.179-0.52v0c0.748-0.034 1.467-0.124 2.157-0.27 0.687-0.143 1.225-0.299 1.616-0.469v0c0.17 0.068 0.314 0.187 0.433 0.357 0.119 0.17 0.178 0.45 0.179 0.841v0 7.317l-2.346 0.943c-0.085 0.238-0.204 0.467-0.357 0.689-0.153 0.221-0.331 0.425-0.535 0.611v0c-0.425 0.408-0.892 0.717-1.402 0.928-0.51 0.214-1.122 0.321-1.836 0.322zM261.12 207.144v0c-0.204-0.085-0.369-0.218-0.494-0.398-0.129-0.177-0.194-0.537-0.194-1.081v0c0-0.204 0.017-0.481 0.051-0.831 0.034-0.347 0.102-0.792 0.204-1.336v0l2.218-0.28c0 0.425 0.034 0.773 0.102 1.045 0.068 0.272 0.212 0.467 0.433 0.587 0.221 0.119 0.561 0.178 1.02 0.178v0c0 0.204-0.009 0.425-0.026 0.663-0.017 0.238-0.068 0.459-0.153 0.663v0c-0.476 0.017-1.011 0.093-1.606 0.229-0.595 0.136-1.113 0.323-1.555 0.561zM275.993 195.876v0c-0.017 0.425-0.025 0.867-0.025 1.325 0 0.459 0.034 0.909 0.102 1.352v0c-0.187 0.102-0.411 0.182-0.673 0.239-0.265 0.061-0.534 0.092-0.806 0.092v0c-0.034-0.459-0.165-0.892-0.392-1.3-0.231-0.408-0.542-0.739-0.933-0.994-0.391-0.255-0.858-0.382-1.403-0.383v0c-0.493 0-0.884 0.119-1.172 0.357-0.289 0.238-0.433 0.552-0.434 0.943v0c0 0.272 0.059 0.513 0.179 0.724 0.119 0.214 0.391 0.444 0.815 0.689 0.425 0.248 1.079 0.551 1.964 0.907v0c0.935 0.34 1.666 0.683 2.192 1.03 0.527 0.35 0.906 0.733 1.137 1.147 0.228 0.418 0.342 0.933 0.342 1.545v0c0 0.714-0.207 1.343-0.622 1.887-0.418 0.544-0.996 0.964-1.734 1.259-0.741 0.299-1.579 0.449-2.514 0.449v0c-1.037 0-1.864-0.082-2.483-0.245-0.622-0.16-1.239-0.384-1.851-0.673v0c0.051-0.289 0.082-0.629 0.092-1.019 0.007-0.391 0.01-0.778 0.01-1.163 0-0.381-0.017-0.707-0.051-0.979v0c0.153-0.119 0.374-0.204 0.663-0.255 0.289-0.051 0.569-0.076 0.841-0.076v0c0.136 1.037 0.456 1.81 0.959 2.32 0.5 0.51 1.166 0.765 1.999 0.764v0c0.629 0 1.127-0.141 1.494-0.423 0.364-0.279 0.546-0.648 0.545-1.106v0c0-0.289-0.071-0.544-0.214-0.765-0.146-0.221-0.406-0.439-0.78-0.653-0.374-0.211-0.935-0.461-1.683-0.749v0c-0.884-0.357-1.601-0.697-2.151-1.02-0.554-0.323-0.959-0.71-1.214-1.163-0.255-0.449-0.382-1.021-0.382-1.718v0c0-0.544 0.136-1.02 0.408-1.428 0.272-0.408 0.625-0.744 1.06-1.009 0.432-0.262 0.908-0.457 1.428-0.586 0.517-0.126 1.013-0.189 1.489-0.189v0c0.816 0 1.521 0.071 2.116 0.214 0.595 0.146 1.156 0.364 1.682 0.653zM284.595 207.144v0c-1.054 0-1.839-0.272-2.356-0.816-0.52-0.544-0.78-1.436-0.78-2.677v0-6.577c-0.255-0.085-0.522-0.158-0.8-0.219-0.282-0.058-0.627-0.095-1.035-0.113v0c0-0.238 0.017-0.45 0.051-0.637 0.034-0.187 0.093-0.391 0.178-0.612v0h1.606v-3.288c0.408-0.085 0.812-0.229 1.214-0.434 0.398-0.204 0.733-0.425 1.004-0.663v0c0.187 0.068 0.314 0.178 0.383 0.332 0.068 0.153 0.102 0.51 0.102 1.07v0 2.983h3.263c0 0.204-0.017 0.416-0.051 0.638-0.034 0.221-0.093 0.433-0.178 0.637v0c-0.612 0-1.168 0.034-1.668 0.102-0.503 0.068-0.959 0.144-1.366 0.229v0 6.043c0 0.595 0.056 1.074 0.168 1.437 0.109 0.367 0.27 0.636 0.484 0.806 0.211 0.17 0.469 0.255 0.775 0.255v0c0.34 0 0.642-0.048 0.908-0.143 0.262-0.092 0.512-0.231 0.75-0.418v0c0.221 0.272 0.348 0.595 0.382 0.969v0c-0.289 0.306-0.722 0.564-1.3 0.775-0.578 0.214-1.156 0.321-1.734 0.321zM305.322 195.876v0c-0.017 0.425-0.025 0.867-0.026 1.325 0 0.459 0.034 0.909 0.102 1.352v0c-0.187 0.102-0.413 0.182-0.678 0.239-0.262 0.061-0.529 0.092-0.8 0.092v0c-0.034-0.459-0.167-0.892-0.398-1.3-0.228-0.408-0.537-0.739-0.928-0.994-0.391-0.255-0.858-0.382-1.402-0.383v0c-0.493 0-0.884 0.119-1.173 0.357-0.289 0.238-0.433 0.552-0.433 0.943v0c0 0.272 0.059 0.513 0.178 0.724 0.119 0.214 0.391 0.444 0.816 0.689 0.425 0.248 1.079 0.551 1.963 0.907v0c0.935 0.34 1.666 0.683 2.193 1.03 0.527 0.35 0.904 0.733 1.131 1.147 0.231 0.418 0.347 0.933 0.347 1.545v0c0 0.714-0.209 1.343-0.627 1.887-0.415 0.544-0.993 0.964-1.734 1.259-0.738 0.299-1.574 0.449-2.508 0.449v0c-1.037 0-1.866-0.082-2.488-0.245-0.619-0.16-1.234-0.384-1.846-0.673v0c0.051-0.289 0.08-0.629 0.086-1.019 0.01-0.391 0.015-0.778 0.016-1.163 0-0.381-0.017-0.707-0.051-0.979v0c0.153-0.119 0.374-0.204 0.663-0.255 0.289-0.051 0.569-0.076 0.841-0.076v0c0.136 1.037 0.454 1.81 0.953 2.32 0.503 0.51 1.171 0.765 2.004 0.764v0c0.629 0 1.125-0.141 1.489-0.423 0.367-0.279 0.551-0.648 0.551-1.106v0c0-0.289-0.073-0.544-0.219-0.765-0.143-0.221-0.401-0.439-0.775-0.653-0.374-0.211-0.935-0.461-1.683-0.749v0c-0.884-0.357-1.603-0.697-2.157-1.02-0.551-0.323-0.953-0.71-1.208-1.163-0.255-0.449-0.382-1.021-0.383-1.718v0c0-0.544 0.136-1.02 0.408-1.428 0.272-0.408 0.624-0.744 1.056-1.009 0.435-0.262 0.911-0.457 1.427-0.586 0.52-0.126 1.018-0.189 1.494-0.189v0c0.816 0 1.521 0.071 2.116 0.214 0.595 0.146 1.156 0.364 1.683 0.653zM317.391 207.144v0c-0.204-0.085-0.365-0.243-0.485-0.474-0.119-0.228-0.178-0.571-0.178-1.03v0c0-0.17 0.012-0.371 0.036-0.602 0.027-0.228 0.066-0.444 0.117-0.647v0h0.076c-0.068 0.323-0.201 0.646-0.397 0.969-0.194 0.323-0.435 0.612-0.724 0.866v0c-0.306 0.255-0.688 0.462-1.148 0.622-0.459 0.163-1.003 0.245-1.631 0.245v0c-1.088 0-1.926-0.241-2.514-0.724-0.585-0.486-0.877-1.163-0.877-2.029v0c0-0.663 0.156-1.229 0.469-1.698 0.316-0.466 0.724-0.857 1.224-1.173 0.503-0.313 1.052-0.563 1.647-0.749 0.595-0.187 1.185-0.337 1.769-0.449 0.588-0.109 1.12-0.197 1.596-0.265v0c0-0.646-0.014-1.156-0.041-1.53-0.024-0.374-0.075-0.675-0.153-0.902-0.075-0.231-0.189-0.432-0.341-0.602v0c-0.204-0.238-0.433-0.416-0.689-0.535-0.255-0.119-0.535-0.178-0.841-0.179v0c-0.544 0-0.969 0.165-1.275 0.495-0.306 0.333-0.527 0.724-0.663 1.172-0.136 0.452-0.221 0.874-0.255 1.265v0c-0.238 0-0.51-0.017-0.815-0.051-0.306-0.034-0.552-0.085-0.74-0.153v0c0.034-0.442 0.046-0.926 0.036-1.453-0.007-0.527-0.061-0.994-0.163-1.402v0c0.714-0.357 1.479-0.634 2.294-0.831 0.816-0.194 1.572-0.291 2.269-0.291v0c0.731 0 1.343 0.093 1.836 0.28 0.493 0.187 0.875 0.433 1.147 0.74v0c0.425 0.408 0.714 0.947 0.867 1.616 0.153 0.673 0.229 1.587 0.229 2.743v0 2.626c0 0.493 0.037 0.884 0.113 1.173 0.078 0.289 0.228 0.496 0.448 0.622 0.221 0.129 0.552 0.202 0.995 0.219v0c0.017 0.204 0.012 0.425-0.016 0.663-0.024 0.238-0.078 0.459-0.163 0.663v0c-0.476 0.017-0.994 0.093-1.555 0.229-0.561 0.136-1.062 0.323-1.504 0.561zM313.924 205.487v0c0.374 0 0.748-0.124 1.121-0.372 0.374-0.245 0.688-0.619 0.944-1.122 0.255-0.5 0.382-1.157 0.382-1.973v0-0.893c-0.442 0.068-0.892 0.153-1.351 0.255-0.459 0.102-0.88 0.246-1.265 0.434-0.381 0.187-0.687 0.433-0.917 0.739-0.228 0.306-0.342 0.714-0.342 1.224v0c0 0.595 0.144 1.028 0.433 1.3 0.289 0.272 0.62 0.408 0.995 0.408zM323.724 206.991v0c0-0.204 0.009-0.416 0.025-0.637 0.017-0.221 0.051-0.416 0.102-0.587v0c0.68-0.017 1.142-0.178 1.387-0.484 0.248-0.306 0.372-0.884 0.372-1.734v0-11.192c0-0.391-0.042-0.714-0.127-0.968-0.085-0.255-0.263-0.45-0.536-0.587-0.272-0.136-0.688-0.204-1.249-0.204v0c0-0.204 0.017-0.399 0.051-0.586 0.034-0.187 0.093-0.357 0.179-0.51v0c0.357 0 0.79-0.042 1.3-0.127 0.51-0.085 0.989-0.195 1.438-0.332 0.452-0.136 0.789-0.272 1.009-0.408v0c0.17 0.068 0.314 0.187 0.434 0.357 0.119 0.17 0.178 0.425 0.178 0.765v0 13.792c0 0.85 0.114 1.428 0.342 1.734 0.231 0.306 0.627 0.467 1.188 0.484v0c0.051 0.17 0.088 0.374 0.112 0.612 0.027 0.238 0.041 0.442 0.041 0.612v0c-0.289-0.017-0.603-0.029-0.944-0.036-0.34-0.01-0.697-0.019-1.07-0.025-0.374-0.01-0.739-0.015-1.097-0.015v0c-0.357 0-0.731 0.005-1.121 0.015-0.391 0.007-0.756 0.015-1.097 0.025-0.34 0.007-0.646 0.019-0.917 0.036zM338.699 207.144v0c-1.275 0-2.325-0.272-3.151-0.816-0.823-0.544-1.443-1.275-1.861-2.192-0.415-0.918-0.622-1.929-0.622-3.034v0c0-1.122 0.221-2.142 0.662-3.059 0.442-0.918 1.074-1.654 1.897-2.208 0.826-0.551 1.8-0.826 2.922-0.826v0c1.139 0 2.057 0.238 2.753 0.714 0.697 0.476 1.219 1.113 1.566 1.912 0.35 0.799 0.551 1.7 0.601 2.702v0c-0.068 0.391-0.212 0.714-0.433 0.969v0c-0.34 0-0.804 0-1.392 0-0.585 0-1.239 0.003-1.963 0.01-0.721 0.01-1.46 0.027-2.218 0.051-0.755 0.027-1.463 0.058-2.126 0.092v0-1.402h5.251c0-1.122-0.192-2.023-0.576-2.703-0.381-0.68-0.928-1.02-1.642-1.019v0c-0.408 0-0.799 0.127-1.172 0.382-0.374 0.255-0.68 0.683-0.918 1.285-0.238 0.605-0.357 1.443-0.357 2.514v0c0 0.85 0.11 1.661 0.331 2.432 0.221 0.775 0.595 1.404 1.122 1.886 0.527 0.486 1.275 0.729 2.244 0.729v0c0.561 0 1.117-0.119 1.667-0.356 0.554-0.238 1.044-0.578 1.468-1.02v0c0.136 0.068 0.267 0.195 0.393 0.382 0.129 0.187 0.202 0.365 0.219 0.536v0c-0.595 0.731-1.28 1.253-2.055 1.565-0.772 0.316-1.642 0.474-2.61 0.474zM355.076 195.876v0c-0.017 0.425-0.025 0.867-0.025 1.325 0 0.459 0.034 0.909 0.102 1.352v0c-0.187 0.102-0.413 0.182-0.678 0.239-0.262 0.061-0.529 0.092-0.801 0.092v0c-0.034-0.459-0.167-0.892-0.398-1.3-0.228-0.408-0.537-0.739-0.928-0.994-0.391-0.255-0.858-0.382-1.402-0.383v0c-0.493 0-0.884 0.119-1.173 0.357-0.289 0.238-0.433 0.552-0.433 0.943v0c0 0.272 0.059 0.513 0.179 0.724 0.119 0.214 0.391 0.444 0.815 0.689 0.425 0.248 1.079 0.551 1.963 0.907v0c0.935 0.34 1.666 0.683 2.193 1.03 0.527 0.35 0.904 0.733 1.132 1.147 0.231 0.418 0.347 0.933 0.347 1.545v0c0 0.714-0.209 1.343-0.628 1.887-0.415 0.544-0.993 0.964-1.733 1.259-0.738 0.299-1.574 0.449-2.509 0.449v0c-1.037 0-1.866-0.082-2.488-0.245-0.619-0.16-1.234-0.384-1.846-0.673v0c0.051-0.289 0.08-0.629 0.087-1.019 0.01-0.391 0.015-0.778 0.015-1.163 0-0.381-0.017-0.707-0.051-0.979v0c0.153-0.119 0.374-0.204 0.663-0.255 0.289-0.051 0.569-0.076 0.841-0.076v0c0.136 1.037 0.454 1.81 0.954 2.32 0.503 0.51 1.171 0.765 2.004 0.764v0c0.629 0 1.125-0.141 1.489-0.423 0.367-0.279 0.551-0.648 0.55-1.106v0c0-0.289-0.073-0.544-0.219-0.765-0.143-0.221-0.401-0.439-0.775-0.653-0.374-0.211-0.935-0.461-1.683-0.749v0c-0.884-0.357-1.603-0.697-2.157-1.02-0.551-0.323-0.953-0.71-1.208-1.163-0.255-0.449-0.382-1.021-0.382-1.718v0c0-0.544 0.136-1.02 0.408-1.428 0.272-0.408 0.624-0.744 1.055-1.009 0.435-0.262 0.911-0.457 1.428-0.586 0.52-0.126 1.018-0.189 1.494-0.189v0c0.816 0 1.521 0.071 2.116 0.214 0.595 0.146 1.156 0.364 1.682 0.653z" fill="#000000" fill-rule="nonzero" stroke="none" stroke-width="1" stroke-linecap="butt" stroke-linejoin="miter" stroke-miterlimit="10" stroke-dasharray="" stroke-dashoffset="0" font-family="none" font-weight="none" font-size="none" text-anchor="none" style="mix-blend-mode: normal" data-fill-palette-color="secondary" id="text-1"></path></g></g><g transform="matrix(1,0,0,1,29.33176499999999,55.004169457377316)"><svg viewBox="0 0 316.416 59.77512108524535" height="59.77512108524535" width="316.416"><g><svg viewBox="0 0 316.416 59.77512108524535" height="59.77512108524535" width="316.416"><g><svg viewBox="0 0 316.416 59.77512108524535" height="59.77512108524535" width="316.416"><g><svg viewBox="0 0 316.416 59.77512108524535" height="59.77512108524535" width="316.416"><g id="textblocktransform"><svg viewBox="0 0 316.416 59.77512108524535" height="59.77512108524535" width="316.416" id="textblock"><g><svg viewBox="0 0 316.416 59.77512108524535" height="59.77512108524535" width="316.416"><g transform="matrix(1,0,0,1,0,0)"><svg width="316.416" viewBox="1.7 -43.65 298.53000000000003 56.4" height="59.77512108524535" data-palette-color="#111111"><path d="M43.55-37.5L38.8-33.8 38.8-15.5Q38.8-10.25 36.25-6.5 33.7-2.75 29.95-0.88 26.2 1 22.65 1L22.65 1Q18.1 1 14.53-0.98 10.95-2.95 8.95-6.43 6.95-9.9 6.95-14.25L6.95-14.25 6.95-35.35 1.7-37.05 2.8-39.3 18.5-39.3 18.5-37.5 13.75-33.8 13.75-16.55Q13.75-10.4 16.8-6.95 19.85-3.5 26.05-3.5L26.05-3.5Q28.35-3.5 30.58-4.98 32.8-6.45 34.25-9.3 35.7-12.15 35.7-16.05L35.7-16.05 35.7-34.55 30.4-37.05 31.5-39.3 43.55-39.3 43.55-37.5ZM57.5-3.85L62-2.2 60.85 0.05 46.55 0.05 46.55-1.75 51-5.3 51-35.4 46.55-38.5 46.55-40.3 55.35-43.65 57.5-43.65 57.5-3.85ZM79.1-2.2L78 0.05 69.15 0.05 60-13.2 69.25-20.9 64.2-24.35 65.3-26.6 77.75-26.6 77.75-24.8 66.35-15.25 74.45-3.95 79.1-2.2ZM115.9 0.95L113 0.05 82.7 0.05 82.7-1.75 87.4-5.45 87.4-35.3 82.1-37.05 83.25-39.3 112.5-39.3 115.4-40.2 115.4-28.45 113.65-27.85 107.65-36.75 94.2-36.75 94.2-21.35 101.65-21.35 105.3-27.6 107.1-27.6 107.1-12.55 104.85-11.4 101.7-18.8 94.2-18.8 94.2-2.55 107.4-2.55 114.15-12.5 115.9-11.85 115.9 0.95ZM151.09-2.2L149.99 0.05 142.09 0.05 134.39-10.35 129.04-5.35 133.64-2.15 132.54 0.1 121.44 0.1 121.44-1.7 132.79-12.45 125.69-21.7 121.19-24.4 122.34-26.65 130.24-26.65 137.89-16.4 143.04-21.2 138.39-24.4 139.54-26.65 150.59-26.65 150.59-24.85 139.44-14.3 146.54-5.1 151.09-2.2ZM170.24 0.55Q167.69 0.55 165.49-0.95L165.49-0.95 165.49 8.4 172.59 10.5 171.49 12.75 154.54 12.75 154.54 10.95 158.99 7.4 158.99-18.9 154.54-21.55 154.54-23.35 163.44-27.6 165.19-21.2 172.14-26.75Q173.74-27.15 175.79-27.15L175.79-27.15Q178.54-27.15 180.79-25.43 183.04-23.7 184.29-20.73 185.54-17.75 185.54-14.2L185.54-14.2Q185.54-10.3 183.17-6.93 180.79-3.55 177.19-1.53 173.59 0.5 170.24 0.5L170.24 0.5 170.24 0.55ZM173.09-21.9Q171.24-21.9 169.52-21.23 167.79-20.55 165.49-18.6L165.49-18.6 165.49-10.2Q165.49-7.55 167.47-5.75 169.44-3.95 173.14-3.95L173.14-3.95Q175.84-3.95 177.19-5.93 178.54-7.9 178.54-11.75L178.54-11.75Q178.54-16.05 177.12-18.98 175.69-21.9 173.09-21.9L173.09-21.9ZM207.29-21.5Q206.24-21.5 205.09-20.95 203.94-20.4 202.49-18.95L202.49-18.95 202.49-4.3 209.59-2.2 208.49 0.05 191.54 0.05 191.54-1.75 195.99-5.3 195.99-18.9 191.54-21.55 191.54-23.35 200.44-27.6 202.09-21.55 207.14-26.75Q208.29-27.15 209.84-27.15L209.84-27.15Q211.69-27.15 213.06-26.2 214.44-25.25 215.14-23.5L215.14-23.5 211.54-19 209.39-19Q209.19-20.35 208.69-20.93 208.19-21.5 207.29-21.5L207.29-21.5ZM244.14-6.8L235.54 0.05Q233.39 0.5 230.34 0.5L230.34 0.5Q226.99 0.5 224.31-1.23 221.64-2.95 220.11-5.9 218.59-8.85 218.59-12.45L218.59-12.45Q218.59-16.35 220.96-19.73 223.34-23.1 226.94-25.13 230.54-27.15 233.89-27.15L233.89-27.15Q238.74-27.15 241.41-23.35 244.09-19.55 244.04-13.2L244.04-13.2 225.64-13.2Q225.99-9.2 227.94-6.68 229.89-4.15 233.24-4.15L233.24-4.15Q236.54-4.15 242.64-8.85L242.64-8.85 244.14-6.8ZM231.04-22.6Q225.89-22.6 225.64-15.5L225.64-15.5 236.89-15.5Q236.44-18.05 235.96-19.45 235.49-20.85 234.34-21.73 233.19-22.6 230.99-22.6L230.99-22.6 231.04-22.6ZM265.93-5.6Q265.93-6.9 264.43-8.03 262.93-9.15 259.83-10.8L259.83-10.8Q257.18-12.2 255.61-13.2 254.03-14.2 252.91-15.53 251.78-16.85 251.78-18.45L251.78-18.45Q251.78-20.25 253.33-22.3 254.88-24.35 257.16-25.75 259.43-27.15 261.33-27.15L261.33-27.15Q263.68-27.15 266.78-26.58 269.88-26 271.28-25.3L271.28-25.3 271.28-17.45 269.13-17.45Q267.58-20.4 265.53-22.08 263.48-23.75 261.28-23.75L261.28-23.75Q259.83-23.75 258.96-22.98 258.08-22.2 258.08-21.05L258.08-21.05Q258.08-19.6 259.63-18.45 261.18-17.3 264.43-15.55L264.43-15.55Q266.98-14.25 268.53-13.28 270.08-12.3 271.18-11.03 272.28-9.75 272.28-8.2L272.28-8.2Q272.28-6.35 270.66-4.33 269.03-2.3 266.71-0.9 264.38 0.5 262.43 0.5L262.43 0.5Q259.93 0.5 256.46-0.1 252.98-0.7 251.53-1.35L251.53-1.35 251.53-9.25 253.68-9.25Q255.38-6.25 257.73-4.58 260.08-2.9 262.48-2.9L262.48-2.9Q264.03-2.9 264.98-3.7 265.93-4.5 265.93-5.6L265.93-5.6ZM293.88-5.6Q293.88-6.9 292.38-8.03 290.88-9.15 287.78-10.8L287.78-10.8Q285.13-12.2 283.56-13.2 281.98-14.2 280.86-15.53 279.73-16.85 279.73-18.45L279.73-18.45Q279.73-20.25 281.28-22.3 282.83-24.35 285.11-25.75 287.38-27.15 289.28-27.15L289.28-27.15Q291.63-27.15 294.73-26.58 297.83-26 299.23-25.3L299.23-25.3 299.23-17.45 297.08-17.45Q295.53-20.4 293.48-22.08 291.43-23.75 289.23-23.75L289.23-23.75Q287.78-23.75 286.91-22.98 286.03-22.2 286.03-21.05L286.03-21.05Q286.03-19.6 287.58-18.45 289.13-17.3 292.38-15.55L292.38-15.55Q294.93-14.25 296.48-13.28 298.03-12.3 299.13-11.03 300.23-9.75 300.23-8.2L300.23-8.2Q300.23-6.35 298.61-4.33 296.98-2.3 294.66-0.9 292.33 0.5 290.38 0.5L290.38 0.5Q287.88 0.5 284.41-0.1 280.93-0.7 279.48-1.35L279.48-1.35 279.48-9.25 281.63-9.25Q283.33-6.25 285.68-4.58 288.03-2.9 290.43-2.9L290.43-2.9Q291.98-2.9 292.93-3.7 293.88-4.5 293.88-5.6L293.88-5.6Z" opacity="1" transform="matrix(1,0,0,1,0,0)" fill="#000000" class="wordmark-text-0" data-fill-palette-color="primary" id="text-0"></path></svg></g></svg></g></svg></g></svg></g><g></g></svg></g></svg></g></svg></g></svg></g><defs></defs></svg><rect width="375.07953" height="169.78346" fill="none" stroke="none" visibility="hidden"></rect></g></svg></g></svg>