<svg xmlns="http://www.w3.org/2000/svg" version="1.1" xmlns:xlink="http://www.w3.org/1999/xlink" xmlns:svgjs="http://svgjs.dev/svgjs" width="2000" height="1088" viewBox="0 0 2000 1088"><g transform="matrix(1,0,0,1,0.21333333333336668,-0.6744533333335312)"><svg viewBox="0 0 375 204" data-background-color="#444444" preserveAspectRatio="xMidYMid meet" height="1088" width="2000" xmlns="http://www.w3.org/2000/svg" xmlns:xlink="http://www.w3.org/1999/xlink"><g id="tight-bounds" transform="matrix(1,0,0,1,-0.03976000000000113,0.12650000000002137)"><svg viewBox="0 0 375.07953 203.74703999999997" height="203.74703999999997" width="375.07953"><g><svg></svg></g><g><svg viewBox="0 0 375.07953 203.74703999999997" height="203.74703999999997" width="375.07953"><g transform="matrix(1,0,0,1,-10.22024,-27.562039999999996)"><path d="M10.22 219.638v-192.076h375.08v192.076h-14.76l0-6.476h8.284v-179.124h-362.128v179.124h8.284l0 6.476z" fill="#ffffff" fill-rule="nonzero" stroke="none" stroke-width="1" stroke-linecap="butt" stroke-linejoin="miter" stroke-miterlimit="10" stroke-dasharray="" stroke-dashoffset="0" font-family="none" font-weight="none" font-size="none" text-anchor="none" style="mix-blend-mode: normal" data-fill-palette-color="tertiary"></path><g><path d="M44.47 224.076v0l0.127-1.295c0.632-0.168 1.084-0.417 1.358-0.746 0.274-0.324 0.411-0.76 0.41-1.307v0-8.023c0-0.59-0.095-1.021-0.284-1.296-0.19-0.274-0.484-0.411-0.884-0.41v0c-0.168 0-0.341 0.021-0.518 0.063-0.181 0.042-0.272 0.063-0.272 0.063v0l0.126-1.168c0.526-0.084 1.059-0.179 1.599-0.285 0.535-0.105 1.023-0.206 1.465-0.303 0.442-0.093 0.8-0.171 1.074-0.234 0.274-0.063 0.411-0.095 0.411-0.095v0l0.158 0.38c-0.084 0.211-0.173 0.678-0.266 1.402-0.097 0.729-0.177 1.613-0.24 2.653-0.063 1.044-0.116 2.182-0.158 3.412-0.042 1.234-0.063 2.472-0.063 3.714v0c0 0.611 0.084 1.057 0.253 1.339 0.168 0.286 0.453 0.43 0.853 0.43v0c0.19 0 0.421-0.011 0.695-0.032 0.274-0.021 0.411-0.032 0.41-0.031v0l0.064 0.126-0.253 1.358c0 0-0.088-0.004-0.266-0.012-0.181-0.013-0.413-0.023-0.694-0.032-0.286-0.013-0.592-0.023-0.916-0.031-0.329-0.013-0.64-0.019-0.935-0.019v0c-0.442 0-0.916 0.032-1.422 0.094-0.505 0.063-0.937 0.126-1.295 0.19-0.358 0.063-0.537 0.095-0.537 0.095zM47.25 205.313v0c-0.526 0-0.916-0.168-1.169-0.505-0.253-0.337-0.379-0.705-0.379-1.106v0c0-0.505 0.179-0.943 0.537-1.314 0.358-0.366 0.8-0.55 1.327-0.549v0c0.505 0 0.891 0.162 1.156 0.486 0.261 0.329 0.392 0.703 0.391 1.125v0c0 0.505-0.175 0.941-0.524 1.307-0.345 0.371-0.792 0.556-1.339 0.556zM58.495 224.076v0c-1.432 0-2.443-0.291-3.033-0.872-0.59-0.577-0.884-1.56-0.884-2.95v0-7.771c0-0.569-0.126-0.969-0.379-1.2-0.253-0.232-0.726-0.358-1.422-0.379v0l-0.126-0.189 0.158-0.948c0.505-0.253 0.996-0.543 1.472-0.872 0.472-0.324 0.893-0.64 1.263-0.947 0.366-0.303 0.655-0.556 0.866-0.758 0.211-0.198 0.316-0.297 0.316-0.297v0l0.632 0.252c0 0-0.025 0.2-0.076 0.6-0.055 0.4-0.114 0.99-0.177 1.769v0l4.643-0.094 0.095 0.094-0.284 1.674-4.581-0.094c-0.063 0.99-0.116 2.148-0.157 3.474-0.042 1.327-0.063 2.801-0.064 4.422v0c0 1.074 0.185 1.832 0.556 2.275 0.366 0.442 1.002 0.663 1.908 0.663v0c0.526 0 1.017-0.095 1.472-0.284 0.451-0.19 0.676-0.284 0.676-0.285v0l0.316 0.822c0 0-0.126 0.095-0.379 0.284-0.253 0.19-0.562 0.411-0.929 0.663-0.371 0.253-0.729 0.474-1.074 0.663-0.35 0.19-0.619 0.284-0.808 0.285zM70.055 224.076v0l0.127-1.295c0.632-0.168 1.084-0.417 1.358-0.746 0.274-0.324 0.411-0.76 0.411-1.307v0-8.023c0-0.59-0.095-1.021-0.285-1.296-0.19-0.274-0.484-0.411-0.884-0.41v0c-0.168 0-0.343 0.021-0.525 0.063-0.177 0.042-0.265 0.063-0.265 0.063v0l0.126-1.168c0.526-0.084 1.059-0.179 1.599-0.285 0.535-0.105 1.023-0.206 1.465-0.303 0.442-0.093 0.8-0.171 1.074-0.234 0.274-0.063 0.411-0.095 0.411-0.095v0l0.158 0.38c-0.084 0.211-0.173 0.678-0.265 1.402-0.097 0.729-0.177 1.613-0.24 2.653-0.063 1.044-0.116 2.182-0.158 3.412-0.042 1.234-0.063 2.472-0.064 3.714v0c0 0.611 0.084 1.057 0.253 1.339 0.168 0.286 0.453 0.43 0.853 0.43v0c0.19 0 0.421-0.011 0.695-0.032 0.274-0.021 0.411-0.032 0.41-0.031v0l0.064 0.126-0.253 1.358c0 0-0.088-0.004-0.265-0.012-0.181-0.013-0.415-0.023-0.702-0.032-0.282-0.013-0.585-0.023-0.909-0.031-0.329-0.013-0.64-0.019-0.935-0.019v0c-0.442 0-0.916 0.032-1.422 0.094-0.505 0.063-0.937 0.126-1.295 0.19-0.358 0.063-0.537 0.095-0.537 0.095zM72.835 205.313v0c-0.526 0-0.916-0.168-1.169-0.505-0.253-0.337-0.379-0.705-0.379-1.106v0c0-0.505 0.179-0.943 0.537-1.314 0.358-0.366 0.8-0.55 1.327-0.549v0c0.505 0 0.889 0.162 1.15 0.486 0.265 0.329 0.398 0.703 0.398 1.125v0c0 0.505-0.173 0.941-0.518 1.307-0.35 0.371-0.798 0.556-1.346 0.556zM82.974 224.076v0c-0.758 0-1.421-0.057-1.99-0.171-0.569-0.118-1.004-0.23-1.307-0.335-0.307-0.105-0.461-0.158-0.462-0.158v0l-0.094-0.221c0.042-0.232 0.088-0.617 0.139-1.156 0.055-0.535 0.107-1.097 0.158-1.687 0.055-0.59 0.082-1.053 0.082-1.389v0l1.105-0.158c0 1.39 0.232 2.369 0.695 2.937 0.463 0.569 1.253 0.853 2.369 0.853v0c0.8 0 1.474-0.179 2.022-0.537 0.547-0.358 0.821-0.8 0.821-1.326v0c0-0.358-0.105-0.684-0.316-0.98-0.211-0.295-0.579-0.621-1.105-0.979-0.526-0.358-1.274-0.79-2.243-1.295v0c-1.2-0.611-2.074-1.232-2.622-1.863-0.547-0.632-0.821-1.327-0.821-2.085v0c0-0.863 0.253-1.632 0.758-2.306 0.505-0.674 1.2-1.207 2.085-1.598 0.884-0.387 1.874-0.581 2.969-0.581v0c0.863 0 1.605 0.084 2.224 0.252 0.623 0.168 0.935 0.253 0.935 0.253v0l0.063 0.158c0 0-0.036 0.179-0.108 0.537-0.076 0.358-0.162 0.828-0.259 1.409-0.093 0.577-0.171 1.213-0.233 1.907v0l-1.169 0.095c0 0 0.011-0.116 0.031-0.347 0.021-0.232 0.032-0.421 0.032-0.569v0c0-0.758-0.204-1.312-0.613-1.661-0.413-0.345-1.072-0.518-1.977-0.518v0c-0.716 0-1.32 0.168-1.813 0.505-0.497 0.337-0.745 0.748-0.746 1.232v0c0 0.505 0.217 0.979 0.651 1.421 0.43 0.442 1.129 0.916 2.097 1.422v0c1.137 0.59 2.028 1.12 2.673 1.592 0.64 0.476 1.091 0.935 1.352 1.377 0.265 0.442 0.398 0.927 0.398 1.453v0c0 0.8-0.267 1.548-0.803 2.242-0.539 0.695-1.247 1.247-2.122 1.656-0.872 0.413-1.824 0.619-2.856 0.619zM106.664 224.076l0.127-1.295c0.632-0.168 1.084-0.417 1.358-0.746 0.274-0.324 0.411-0.76 0.41-1.307v0l0.127-6.255c0-1.053-0.225-1.864-0.676-2.432-0.455-0.569-1.103-0.853-1.946-0.853v0c-0.505 0-1.021 0.105-1.548 0.316-0.526 0.211-0.994 0.442-1.402 0.695-0.413 0.253-0.724 0.463-0.935 0.632v0c-0.021 0.547-0.046 1.194-0.076 1.939-0.034 0.75-0.065 1.514-0.095 2.294-0.034 0.779-0.061 1.485-0.082 2.116-0.021 0.632-0.032 1.106-0.031 1.421v0c0 0.653 0.091 1.11 0.271 1.371 0.177 0.265 0.465 0.398 0.866 0.398v0c0.19 0 0.421-0.011 0.695-0.032 0.274-0.021 0.411-0.032 0.41-0.031v0l0.063 0.126-0.284 1.358c0 0-0.158-0.011-0.474-0.031-0.316-0.021-0.695-0.036-1.137-0.044-0.442-0.013-0.863-0.019-1.263-0.019v0c-0.442 0-0.905 0.006-1.39 0.019-0.484 0.008-0.895 0.019-1.232 0.031-0.337 0.008-0.505 0.013-0.505 0.013v0l0.189-1.295c0.611-0.063 1.038-0.221 1.283-0.474 0.24-0.253 0.36-0.674 0.36-1.263v0-7.708c0-0.716-0.116-1.217-0.348-1.503-0.232-0.282-0.632-0.423-1.2-0.423v0h-0.347l-0.095-0.127 0.095-1.042c0.737-0.126 1.442-0.259 2.116-0.398 0.674-0.135 1.228-0.255 1.661-0.36 0.43-0.105 0.644-0.158 0.645-0.158v0l0.189 0.253c0 0-0.046 0.211-0.139 0.631-0.097 0.421-0.166 0.905-0.208 1.453v0l0.063 0.095c0.19-0.126 0.484-0.322 0.884-0.587 0.4-0.261 0.838-0.535 1.314-0.822 0.472-0.282 0.929-0.518 1.371-0.707 0.442-0.19 0.8-0.284 1.074-0.285v0c1.011 0 1.87 0.215 2.578 0.645 0.703 0.434 1.192 1.051 1.465 1.851v0c0.126-0.105 0.385-0.291 0.777-0.556 0.387-0.261 0.834-0.539 1.34-0.834 0.505-0.295 0.996-0.554 1.471-0.777 0.472-0.219 0.865-0.329 1.182-0.328v0c1.327 0 2.38 0.369 3.158 1.105 0.779 0.737 1.169 1.727 1.169 2.969v0c0 0.274-0.021 0.726-0.063 1.358-0.042 0.632-0.095 1.337-0.158 2.117-0.063 0.779-0.116 1.527-0.158 2.242-0.042 0.716-0.063 1.306-0.063 1.769v0c0 0.653 0.091 1.11 0.272 1.371 0.177 0.265 0.465 0.398 0.865 0.398v0c0.19 0 0.421-0.011 0.695-0.032 0.274-0.021 0.411-0.032 0.411-0.031v0l0.063 0.126-0.284 1.358c0 0-0.095-0.004-0.285-0.012-0.19-0.013-0.432-0.023-0.726-0.032-0.295-0.013-0.604-0.023-0.929-0.031-0.329-0.013-0.64-0.019-0.935-0.019v0c-0.337 0-0.684 0.011-1.042 0.031-0.358 0.021-0.695 0.042-1.011 0.063-0.316 0.021-0.573 0.042-0.771 0.064-0.202 0.021-0.303 0.032-0.303 0.031v0l0.158-1.295c0.611-0.105 1.042-0.295 1.295-0.568 0.253-0.274 0.379-0.705 0.379-1.295v0l0.126-6.255c0-1.053-0.225-1.864-0.676-2.432-0.455-0.569-1.103-0.853-1.945-0.853v0c-0.505 0-1.004 0.095-1.497 0.285-0.497 0.19-0.95 0.411-1.359 0.663-0.413 0.253-0.735 0.463-0.966 0.632v0l-0.348 7.833c0 0.611 0.084 1.057 0.253 1.339 0.168 0.286 0.453 0.43 0.853 0.43v0c0.19 0 0.421-0.011 0.695-0.032 0.274-0.021 0.411-0.032 0.41-0.031v0l0.064 0.126-0.253 1.358c0 0-0.088-0.004-0.265-0.012-0.181-0.013-0.413-0.023-0.695-0.032-0.286-0.013-0.592-0.023-0.916-0.031-0.329-0.013-0.64-0.019-0.935-0.019v0c-0.337 0-0.689 0.021-1.055 0.063-0.371 0.042-0.724 0.084-1.062 0.126-0.337 0.042-0.611 0.084-0.821 0.127-0.211 0.042-0.316 0.063-0.316 0.063zM130.07 224.076v0c-1.2 0-2.264-0.295-3.19-0.885-0.927-0.59-1.647-1.417-2.161-2.482-0.518-1.061-0.777-2.276-0.777-3.646v0c0-1.516 0.322-2.881 0.967-4.093 0.64-1.209 1.518-2.167 2.634-2.875 1.116-0.703 2.358-1.055 3.727-1.054v0c1.2 0 2.264 0.295 3.19 0.884 0.927 0.59 1.649 1.411 2.167 2.464 0.514 1.053 0.771 2.274 0.771 3.664v0c0 1.495-0.32 2.853-0.96 4.074-0.644 1.221-1.518 2.186-2.622 2.894-1.108 0.703-2.356 1.055-3.746 1.055zM130.954 222.528v0c1.179 0 2.116-0.48 2.812-1.44 0.695-0.956 1.042-2.255 1.042-3.898v0c0-1.263-0.19-2.38-0.569-3.348-0.379-0.969-0.905-1.727-1.579-2.275-0.674-0.547-1.453-0.821-2.337-0.821v0c-1.179 0-2.116 0.484-2.812 1.453-0.695 0.969-1.042 2.285-1.042 3.948v0c0 1.263 0.19 2.373 0.569 3.33 0.379 0.96 0.905 1.708 1.579 2.242 0.674 0.539 1.453 0.809 2.337 0.809zM140.241 223.823l0.158-1.263c0.632-0.063 1.053-0.27 1.263-0.62 0.211-0.345 0.316-1.013 0.316-2.002v0-6.949c0-0.695-0.095-1.19-0.284-1.485-0.19-0.295-0.495-0.442-0.916-0.442v0c-0.168 0-0.32 0.015-0.455 0.044-0.139 0.034-0.208 0.051-0.209 0.051v0l-0.158-0.221 0.095-0.979c0.653-0.126 1.306-0.263 1.959-0.411 0.653-0.147 1.2-0.274 1.642-0.379 0.442-0.105 0.663-0.158 0.663-0.158v0l0.222 0.189c0 0-0.025 0.168-0.076 0.506-0.055 0.337-0.103 0.752-0.146 1.244-0.042 0.497-0.063 0.998-0.063 1.504v0l0.127 0.095c0.653-0.99 1.4-1.8 2.242-2.433 0.842-0.632 1.579-0.948 2.211-0.947v0c0.358 0 0.611 0.021 0.758 0.063 0.147 0.042 0.221 0.063 0.222 0.063v0l0.094 0.127c0 0-0.021 0.141-0.063 0.423-0.042 0.286-0.095 0.655-0.158 1.105-0.063 0.455-0.12 0.945-0.17 1.472-0.055 0.526-0.093 1.032-0.114 1.516v0l-1.232 0.095c0-0.863-0.053-1.438-0.158-1.724-0.105-0.282-0.337-0.423-0.695-0.424v0c-0.463 0-0.958 0.19-1.484 0.569-0.526 0.379-1.011 0.905-1.453 1.579v0c0 0-0.011 0.194-0.032 0.581-0.021 0.392-0.042 0.882-0.063 1.472-0.021 0.59-0.042 1.194-0.063 1.813-0.021 0.623-0.042 1.171-0.063 1.643-0.021 0.476-0.032 0.788-0.032 0.935v0c0 0.716 0.105 1.2 0.316 1.453 0.211 0.253 0.611 0.379 1.2 0.379v0c0.232 0 0.522-0.011 0.872-0.032 0.345-0.021 0.518-0.032 0.518-0.031v0l0.032 0.126-0.285 1.39c0 0-0.105-0.004-0.316-0.013-0.211-0.013-0.484-0.019-0.821-0.019-0.337 0-0.689-0.004-1.055-0.012-0.371-0.013-0.714-0.019-1.03-0.019v0c-0.611 0-1.169 0.011-1.674 0.031-0.505 0.021-0.905 0.042-1.2 0.063-0.295 0.021-0.442 0.032-0.442 0.032zM158.087 224.076v0c-1.327 0-2.485-0.295-3.474-0.885-0.99-0.59-1.763-1.405-2.319-2.445-0.56-1.044-0.84-2.262-0.84-3.651v0c0-1.074 0.185-2.095 0.556-3.064 0.366-0.969 0.876-1.828 1.529-2.577 0.653-0.745 1.396-1.335 2.23-1.769 0.83-0.43 1.718-0.644 2.666-0.645v0c3.138 0 4.706 1.527 4.706 4.581v0c0 0.274-0.021 0.558-0.063 0.852-0.042 0.295-0.084 0.526-0.126 0.695v0l-0.411 0.379h-8.718c-0.021 1.874 0.322 3.352 1.03 4.435 0.703 1.087 1.697 1.718 2.982 1.895 1.285 0.181 2.801-0.128 4.548-0.928v0l0.19 0.063 0.347 0.916c-0.421 0.295-0.92 0.611-1.497 0.947-0.581 0.337-1.167 0.621-1.756 0.853-0.59 0.232-1.116 0.347-1.58 0.348zM153.949 214.379v0l5.718-0.285c0.316-0.042 0.526-0.116 0.631-0.221 0.105-0.105 0.158-0.316 0.158-0.631v0c0-0.842-0.225-1.485-0.676-1.927-0.455-0.442-1.103-0.663-1.945-0.664v0c-0.969 0-1.811 0.333-2.527 0.999-0.716 0.661-1.169 1.571-1.359 2.729zM177.229 224.076v0c-1.432 0-2.443-0.291-3.033-0.872-0.59-0.577-0.884-1.56-0.884-2.95v0-7.771c0-0.569-0.126-0.969-0.379-1.2-0.253-0.232-0.726-0.358-1.421-0.379v0l-0.127-0.189 0.158-0.948c0.505-0.253 0.996-0.543 1.472-0.872 0.472-0.324 0.893-0.64 1.263-0.947 0.366-0.303 0.655-0.556 0.866-0.758 0.211-0.198 0.316-0.297 0.316-0.297v0l0.632 0.252c0 0-0.025 0.2-0.076 0.6-0.055 0.4-0.114 0.99-0.177 1.769v0l4.643-0.094 0.095 0.094-0.284 1.674-4.58-0.094c-0.063 0.99-0.116 2.148-0.158 3.474-0.042 1.327-0.063 2.801-0.064 4.422v0c0 1.074 0.185 1.832 0.556 2.275 0.366 0.442 1.002 0.663 1.908 0.663v0c0.526 0 1.017-0.095 1.472-0.284 0.451-0.19 0.676-0.284 0.676-0.285v0l0.316 0.822c0 0-0.126 0.095-0.379 0.284-0.253 0.19-0.562 0.411-0.929 0.663-0.371 0.253-0.729 0.474-1.074 0.663-0.35 0.19-0.619 0.284-0.808 0.285zM182.061 223.76l0.19-1.295c0.611-0.063 1.038-0.221 1.282-0.474 0.24-0.253 0.36-0.674 0.36-1.263v0-16.805c0-0.569-0.088-0.983-0.265-1.244-0.181-0.265-0.482-0.398-0.903-0.398v0h-0.664l-0.126-0.095 0.126-1.011c0.484-0.063 1.017-0.147 1.599-0.252 0.577-0.105 1.139-0.217 1.686-0.335 0.547-0.114 1.011-0.223 1.39-0.329v0l0.19 0.411c-0.084 0.147-0.179 0.705-0.284 1.674-0.105 0.969-0.194 2.243-0.266 3.822-0.076 1.579-0.145 3.359-0.208 5.338v0c0.147-0.105 0.417-0.291 0.808-0.556 0.387-0.261 0.83-0.539 1.327-0.834 0.493-0.295 0.977-0.547 1.453-0.758 0.472-0.211 0.855-0.316 1.15-0.315v0c1.369 0 2.432 0.352 3.19 1.055 0.758 0.708 1.137 1.714 1.137 3.019v0c0 0.274-0.025 0.726-0.076 1.358-0.055 0.632-0.114 1.337-0.177 2.117-0.063 0.779-0.12 1.527-0.17 2.242-0.055 0.716-0.082 1.306-0.082 1.769v0c0 0.611 0.084 1.057 0.252 1.339 0.168 0.286 0.453 0.43 0.853 0.43v0c0.126 0 0.301-0.006 0.525-0.019 0.219-0.008 0.413-0.023 0.581-0.044v0l0.063 0.126-0.253 1.358c-0.337-0.021-0.783-0.042-1.339-0.063-0.56-0.021-1.051-0.032-1.472-0.031v0c-0.253 0-0.558 0.017-0.916 0.05-0.358 0.029-0.737 0.072-1.137 0.127-0.4 0.051-0.8 0.118-1.2 0.202v0l0.126-1.295c0.632-0.168 1.084-0.417 1.358-0.746 0.274-0.324 0.411-0.76 0.411-1.307v0l0.189-6.255c0-1.053-0.225-1.864-0.676-2.432-0.455-0.569-1.103-0.853-1.945-0.853v0c-0.526 0-1.173 0.168-1.94 0.506-0.771 0.337-1.461 0.748-2.072 1.232v0c-0.021 0.779-0.036 1.59-0.044 2.432-0.013 0.842-0.023 1.699-0.032 2.571-0.013 0.876-0.019 1.767-0.019 2.672v0c0 0.653 0.091 1.11 0.272 1.371 0.177 0.265 0.465 0.398 0.865 0.398v0c0.126 0 0.301-0.006 0.525-0.019 0.219-0.008 0.413-0.023 0.581-0.044v0l0.063 0.126-0.284 1.358c-0.358-0.021-0.821-0.042-1.39-0.063-0.569-0.021-1.063-0.032-1.484-0.031v0c-0.442 0-0.962 0.006-1.561 0.019-0.602 0.008-1.124 0.023-1.567 0.044zM209.763 224.076v0c-0.842 0-1.499-0.217-1.971-0.651-0.476-0.43-0.756-1.066-0.84-1.908v0l-0.127-0.031c-0.505 0.505-0.983 0.941-1.434 1.307-0.455 0.371-0.855 0.655-1.2 0.853-0.35 0.202-0.63 0.303-0.84 0.303v0c-0.779 0-1.474-0.168-2.085-0.505-0.611-0.337-1.089-0.8-1.434-1.39-0.35-0.59-0.524-1.263-0.524-2.021v0c0-0.611 0.154-1.148 0.461-1.611 0.303-0.463 0.708-0.769 1.213-0.916v0l6.001-1.643 0.032-1.39c0-1.053-0.242-1.874-0.727-2.463-0.484-0.59-1.169-0.884-2.053-0.885v0c-0.59 0-1.211 0.137-1.863 0.411-0.653 0.274-1.295 0.663-1.927 1.169v0l-0.158-0.095-0.379-1.358c0.547-0.316 1.158-0.649 1.832-0.999 0.674-0.345 1.316-0.634 1.927-0.865 0.611-0.232 1.074-0.347 1.39-0.347v0c0.927 0 1.716 0.162 2.369 0.486 0.653 0.329 1.154 0.792 1.503 1.39 0.345 0.602 0.518 1.335 0.518 2.198v0c0 0.274-0.025 0.716-0.076 1.327-0.055 0.611-0.124 1.289-0.208 2.034-0.084 0.75-0.152 1.472-0.202 2.167-0.055 0.695-0.082 1.274-0.083 1.737v0c0 0.463 0.116 0.821 0.348 1.074 0.232 0.253 0.547 0.379 0.948 0.379v0c0.358 0 0.716-0.091 1.073-0.272 0.358-0.177 0.632-0.35 0.822-0.518v0l0.442 0.506c-0.168 0.274-0.394 0.583-0.676 0.928-0.286 0.35-0.602 0.672-0.948 0.967-0.35 0.295-0.724 0.505-1.124 0.632zM203.888 221.801v0c0.4 0 0.87-0.143 1.409-0.429 0.535-0.282 1.023-0.644 1.465-1.087v0l0.158-3.221-4.296 1.295c-0.611 0.19-0.916 0.632-0.916 1.326v0c0 0.59 0.206 1.089 0.619 1.497 0.409 0.413 0.929 0.619 1.561 0.62zM222.935 224.076l0.126-1.295c0.632-0.168 1.084-0.417 1.358-0.746 0.274-0.324 0.411-0.76 0.411-1.307v0l0.126-6.255c0-1.053-0.225-1.864-0.676-2.432-0.455-0.569-1.103-0.853-1.946-0.853v0c-0.505 0-1.021 0.105-1.547 0.316-0.526 0.211-0.994 0.442-1.403 0.695-0.413 0.253-0.724 0.463-0.935 0.632v0c-0.021 0.547-0.046 1.194-0.076 1.939-0.034 0.75-0.065 1.514-0.094 2.294-0.034 0.779-0.061 1.485-0.082 2.116-0.021 0.632-0.032 1.106-0.032 1.421v0c0 0.653 0.091 1.11 0.272 1.371 0.177 0.265 0.465 0.398 0.865 0.398v0c0.19 0 0.421-0.011 0.695-0.032 0.274-0.021 0.411-0.032 0.411-0.031v0l0.063 0.126-0.285 1.358c0 0-0.158-0.011-0.473-0.031-0.316-0.021-0.695-0.036-1.137-0.044-0.442-0.013-0.863-0.019-1.264-0.019v0c-0.442 0-0.905 0.017-1.39 0.05-0.484 0.029-0.895 0.061-1.232 0.095-0.337 0.029-0.505 0.044-0.505 0.044v0l0.158-1.295c0.611-0.105 1.042-0.295 1.295-0.568 0.253-0.274 0.379-0.705 0.379-1.295v0-7.708c0-0.716-0.116-1.217-0.347-1.503-0.232-0.282-0.632-0.423-1.201-0.423v0h-0.347l-0.095-0.127 0.095-1.042c0.737-0.126 1.442-0.259 2.116-0.398 0.674-0.135 1.228-0.255 1.662-0.36 0.43-0.105 0.644-0.158 0.644-0.158v0l0.19 0.253c0 0-0.046 0.211-0.139 0.631-0.097 0.421-0.166 0.905-0.209 1.453v0l0.063 0.095c0.19-0.126 0.491-0.322 0.904-0.587 0.409-0.261 0.851-0.529 1.326-0.803 0.472-0.274 0.929-0.512 1.371-0.714 0.442-0.198 0.79-0.297 1.042-0.297v0c1.327 0 2.38 0.369 3.159 1.106 0.779 0.737 1.169 1.727 1.169 2.969v0c0 0.274-0.021 0.726-0.063 1.358-0.042 0.632-0.095 1.337-0.158 2.117-0.063 0.779-0.116 1.527-0.158 2.242-0.042 0.716-0.063 1.306-0.063 1.769v0c0 0.611 0.084 1.057 0.252 1.339 0.168 0.286 0.453 0.43 0.853 0.43v0c0.19 0 0.421-0.011 0.695-0.032 0.274-0.021 0.411-0.032 0.411-0.031v0l0.063 0.126-0.253 1.358c0 0-0.088-0.004-0.265-0.012-0.181-0.013-0.413-0.023-0.695-0.032-0.286-0.013-0.592-0.023-0.916-0.031-0.329-0.013-0.64-0.019-0.935-0.019v0c-0.337 0-0.689 0.021-1.055 0.063-0.371 0.042-0.724 0.084-1.061 0.126-0.337 0.042-0.611 0.084-0.822 0.127-0.211 0.042-0.316 0.063-0.315 0.063zM237.338 231.309v0l-0.569-0.6 0.064-0.253c0.611-0.611 1.084-1.253 1.421-1.927 0.337-0.674 0.575-1.489 0.714-2.444 0.135-0.96 0.202-2.156 0.202-3.589v0-9.791c0-0.653-0.088-1.101-0.265-1.346-0.181-0.24-0.514-0.36-0.998-0.36v0c-0.168 0-0.352 0.015-0.55 0.044-0.202 0.034-0.303 0.051-0.303 0.051v0l0.126-1.169c0.484-0.063 0.99-0.143 1.516-0.24 0.526-0.093 1.021-0.192 1.485-0.297 0.463-0.105 0.838-0.19 1.124-0.253 0.282-0.063 0.423-0.095 0.424-0.094v0l0.157 0.379c-0.168 0.295-0.299 1.706-0.391 4.232-0.097 2.527-0.145 6.023-0.145 10.487v0c0 1.516-0.341 2.891-1.024 4.125-0.686 1.23-1.683 2.245-2.988 3.045zM240.118 204.682v0c-0.463 0-0.836-0.154-1.119-0.462-0.286-0.303-0.43-0.686-0.429-1.149v0c0-0.526 0.179-0.969 0.537-1.327 0.358-0.358 0.8-0.537 1.327-0.537v0c0.442 0 0.811 0.147 1.105 0.442 0.295 0.295 0.442 0.684 0.442 1.169v0c0 0.526-0.179 0.969-0.537 1.327-0.358 0.358-0.8 0.537-1.326 0.537zM246.909 220.412l0.126-7.676c0-0.547-0.095-0.969-0.284-1.263-0.19-0.295-0.484-0.442-0.885-0.443v0c-0.168 0-0.341 0.021-0.518 0.064-0.181 0.042-0.272 0.063-0.271 0.063v0l0.126-1.169c0.484-0.084 0.99-0.179 1.516-0.284 0.526-0.105 1.017-0.211 1.472-0.316 0.451-0.105 0.819-0.19 1.106-0.253 0.282-0.063 0.423-0.095 0.423-0.095v0l0.19 0.38c-0.105 0.274-0.204 0.741-0.297 1.402-0.097 0.665-0.187 1.44-0.272 2.325-0.084 0.884-0.147 1.815-0.19 2.792-0.042 0.981-0.063 1.935-0.063 2.862v0c0 2.064 0.842 3.095 2.527 3.095v0c0.737 0 1.428-0.206 2.072-0.619 0.64-0.409 1.223-0.802 1.75-1.181v0-7.328c0-0.632-0.116-1.074-0.347-1.327-0.232-0.253-0.642-0.379-1.232-0.379v0c-0.084 0-0.232 0.004-0.442 0.013-0.211 0.013-0.316 0.019-0.316 0.019v0l0.126-1.137c0.569-0.084 1.137-0.179 1.706-0.285 0.569-0.105 1.091-0.206 1.567-0.303 0.472-0.093 0.855-0.171 1.149-0.234 0.295-0.063 0.442-0.095 0.442-0.095v0l0.19 0.38c-0.126 0.316-0.242 1.021-0.347 2.116-0.105 1.095-0.19 2.422-0.253 3.98-0.063 1.558-0.095 3.18-0.095 4.864v0c0 0.463 0.116 0.821 0.348 1.074 0.232 0.253 0.547 0.379 0.947 0.379v0c0.337 0 0.649-0.069 0.935-0.208 0.282-0.135 0.514-0.265 0.695-0.392 0.177-0.126 0.265-0.19 0.265-0.19v0l0.443 0.506c0 0-0.088 0.126-0.266 0.379-0.181 0.253-0.413 0.547-0.695 0.884-0.286 0.337-0.588 0.632-0.903 0.885-0.316 0.253-0.611 0.379-0.885 0.379v0c-1.706 0-2.643-0.853-2.811-2.559v0l-0.158-0.063c-1.011 0.779-1.92 1.411-2.729 1.895-0.813 0.484-1.367 0.726-1.661 0.727v0c-1.348 0-2.384-0.316-3.108-0.948-0.729-0.632-1.093-1.537-1.093-2.716zM266.682 224.076v0c-0.758 0-1.421-0.057-1.99-0.171-0.569-0.118-1.004-0.23-1.308-0.335-0.307-0.105-0.461-0.158-0.461-0.158v0l-0.095-0.221c0.042-0.232 0.091-0.617 0.146-1.156 0.051-0.535 0.103-1.097 0.158-1.687 0.051-0.59 0.076-1.053 0.075-1.389v0l1.106-0.158c0 1.39 0.232 2.369 0.695 2.937 0.463 0.569 1.253 0.853 2.369 0.853v0c0.8 0 1.474-0.179 2.021-0.537 0.547-0.358 0.821-0.8 0.822-1.326v0c0-0.358-0.105-0.684-0.316-0.98-0.211-0.295-0.579-0.621-1.106-0.979-0.526-0.358-1.274-0.79-2.242-1.295v0c-1.2-0.611-2.074-1.232-2.622-1.863-0.547-0.632-0.821-1.327-0.821-2.085v0c0-0.863 0.253-1.632 0.758-2.306 0.505-0.674 1.2-1.207 2.084-1.598 0.884-0.387 1.874-0.581 2.97-0.581v0c0.863 0 1.607 0.084 2.23 0.252 0.619 0.168 0.929 0.253 0.928 0.253v0l0.063 0.158c0 0-0.036 0.179-0.107 0.537-0.076 0.358-0.16 0.828-0.253 1.409-0.097 0.577-0.177 1.213-0.24 1.907v0l-1.168 0.095c0 0 0.011-0.116 0.031-0.347 0.021-0.232 0.032-0.421 0.032-0.569v0c0-0.758-0.204-1.312-0.613-1.661-0.413-0.345-1.072-0.518-1.977-0.518v0c-0.716 0-1.32 0.168-1.813 0.505-0.497 0.337-0.745 0.748-0.746 1.232v0c0 0.505 0.217 0.979 0.651 1.421 0.43 0.442 1.129 0.916 2.097 1.422v0c1.137 0.59 2.028 1.12 2.672 1.592 0.64 0.476 1.093 0.935 1.359 1.377 0.261 0.442 0.392 0.927 0.391 1.453v0c0 0.8-0.267 1.548-0.802 2.242-0.539 0.695-1.245 1.247-2.116 1.656-0.876 0.413-1.83 0.619-2.862 0.619zM280.485 224.076v0c-1.432 0-2.443-0.291-3.032-0.872-0.59-0.577-0.884-1.56-0.884-2.95v0-7.771c0-0.569-0.126-0.969-0.379-1.2-0.253-0.232-0.726-0.358-1.422-0.379v0l-0.126-0.189 0.158-0.948c0.505-0.253 0.996-0.543 1.472-0.872 0.472-0.324 0.893-0.64 1.263-0.947 0.366-0.303 0.655-0.556 0.866-0.758 0.211-0.198 0.316-0.297 0.315-0.297v0l0.632 0.252c0 0-0.025 0.2-0.076 0.6-0.055 0.4-0.114 0.99-0.176 1.769v0l4.643-0.094 0.094 0.094-0.284 1.674-4.58-0.094c-0.063 0.99-0.116 2.148-0.158 3.474-0.042 1.327-0.063 2.801-0.063 4.422v0c0 1.074 0.185 1.832 0.556 2.275 0.366 0.442 1.002 0.663 1.908 0.663v0c0.526 0 1.017-0.095 1.472-0.284 0.451-0.19 0.676-0.284 0.676-0.285v0l0.316 0.822c0 0-0.126 0.095-0.379 0.284-0.253 0.19-0.562 0.411-0.929 0.663-0.371 0.253-0.729 0.474-1.074 0.663-0.35 0.19-0.619 0.284-0.809 0.285zM296.058 224.076v0c-0.758 0-1.421-0.057-1.99-0.171-0.569-0.118-1.004-0.23-1.308-0.335-0.307-0.105-0.461-0.158-0.461-0.158v0l-0.095-0.221c0.042-0.232 0.091-0.617 0.145-1.156 0.051-0.535 0.103-1.097 0.158-1.687 0.051-0.59 0.076-1.053 0.076-1.389v0l1.106-0.158c0 1.39 0.232 2.369 0.694 2.937 0.463 0.569 1.253 0.853 2.369 0.853v0c0.8 0 1.474-0.179 2.022-0.537 0.547-0.358 0.821-0.8 0.821-1.326v0c0-0.358-0.105-0.684-0.316-0.98-0.211-0.295-0.579-0.621-1.105-0.979-0.526-0.358-1.274-0.79-2.243-1.295v0c-1.2-0.611-2.074-1.232-2.621-1.863-0.547-0.632-0.821-1.327-0.822-2.085v0c0-0.863 0.253-1.632 0.758-2.306 0.505-0.674 1.2-1.207 2.085-1.598 0.884-0.387 1.874-0.581 2.969-0.581v0c0.863 0 1.607 0.084 2.23 0.252 0.619 0.168 0.929 0.253 0.929 0.253v0l0.063 0.158c0 0-0.036 0.179-0.107 0.537-0.076 0.358-0.16 0.828-0.253 1.409-0.097 0.577-0.177 1.213-0.24 1.907v0l-1.169 0.095c0 0 0.011-0.116 0.032-0.347 0.021-0.232 0.032-0.421 0.031-0.569v0c0-0.758-0.204-1.312-0.612-1.661-0.413-0.345-1.072-0.518-1.978-0.518v0c-0.716 0-1.32 0.168-1.813 0.505-0.497 0.337-0.745 0.748-0.745 1.232v0c0 0.505 0.217 0.979 0.65 1.421 0.43 0.442 1.129 0.916 2.098 1.422v0c1.137 0.59 2.028 1.12 2.672 1.592 0.64 0.476 1.093 0.935 1.358 1.377 0.261 0.442 0.392 0.927 0.392 1.453v0c0 0.8-0.267 1.548-0.802 2.242-0.539 0.695-1.245 1.247-2.117 1.656-0.876 0.413-1.83 0.619-2.861 0.619zM315.104 224.076v0c-0.842 0-1.499-0.217-1.971-0.651-0.476-0.43-0.756-1.066-0.84-1.908v0l-0.126-0.031c-0.505 0.505-0.983 0.941-1.434 1.307-0.455 0.371-0.855 0.655-1.201 0.853-0.35 0.202-0.63 0.303-0.84 0.303v0c-0.779 0-1.474-0.168-2.085-0.505-0.611-0.337-1.089-0.8-1.434-1.39-0.35-0.59-0.524-1.263-0.524-2.021v0c0-0.611 0.154-1.148 0.461-1.611 0.303-0.463 0.708-0.769 1.213-0.916v0l6.002-1.643 0.031-1.39c0-1.053-0.242-1.874-0.726-2.463-0.484-0.59-1.169-0.884-2.053-0.885v0c-0.59 0-1.211 0.137-1.864 0.411-0.653 0.274-1.295 0.663-1.927 1.169v0l-0.158-0.095-0.379-1.358c0.547-0.316 1.158-0.649 1.832-0.999 0.674-0.345 1.316-0.634 1.927-0.865 0.611-0.232 1.074-0.347 1.39-0.347v0c0.927 0 1.716 0.162 2.369 0.486 0.653 0.329 1.154 0.792 1.503 1.39 0.345 0.602 0.518 1.335 0.518 2.198v0c0 0.274-0.025 0.716-0.075 1.327-0.055 0.611-0.124 1.289-0.209 2.034-0.084 0.75-0.152 1.472-0.202 2.167-0.055 0.695-0.082 1.274-0.082 1.737v0c0 0.463 0.116 0.821 0.347 1.074 0.232 0.253 0.547 0.379 0.948 0.379v0c0.358 0 0.716-0.091 1.074-0.272 0.358-0.177 0.632-0.35 0.821-0.518v0l0.442 0.506c-0.168 0.274-0.394 0.583-0.676 0.928-0.286 0.35-0.602 0.672-0.947 0.967-0.35 0.295-0.724 0.505-1.125 0.632zM309.229 221.801v0c0.4 0 0.87-0.143 1.409-0.429 0.535-0.282 1.023-0.644 1.466-1.087v0l0.157-3.221-4.295 1.295c-0.611 0.19-0.916 0.632-0.916 1.326v0c0 0.59 0.206 1.089 0.619 1.497 0.409 0.413 0.929 0.619 1.56 0.62zM318.926 224.076v0l0.127-1.295c0.611-0.168 1.038-0.385 1.282-0.651 0.24-0.261 0.381-0.613 0.423-1.055 0.042-0.442 0.063-0.99 0.063-1.642v0-15.51c0-0.526-0.046-0.912-0.139-1.156-0.097-0.24-0.276-0.392-0.537-0.454-0.265-0.063-0.661-0.063-1.187 0v0l-0.095-0.064 0.126-1.074c0.779-0.105 1.558-0.232 2.338-0.379 0.779-0.147 1.558-0.326 2.337-0.537v0l0.19 0.411c-0.084 0.147-0.168 0.625-0.253 1.434-0.084 0.813-0.162 1.876-0.234 3.19-0.076 1.318-0.145 2.809-0.208 4.473-0.063 1.664-0.11 3.422-0.139 5.275-0.034 1.853-0.051 3.706-0.051 5.559v0c0 0.632 0.084 1.084 0.253 1.358 0.168 0.274 0.453 0.411 0.853 0.411v0l1.105-0.063 0.064 0.126-0.253 1.358c-0.337-0.021-0.783-0.042-1.339-0.063-0.56-0.021-1.051-0.032-1.472-0.031v0c-0.379 0-0.857 0.038-1.434 0.113-0.581 0.072-1.188 0.16-1.82 0.266zM333.551 224.076v0c-1.327 0-2.485-0.295-3.475-0.885-0.99-0.59-1.763-1.405-2.318-2.445-0.56-1.044-0.84-2.262-0.84-3.651v0c0-1.074 0.185-2.095 0.556-3.064 0.366-0.969 0.876-1.828 1.528-2.577 0.653-0.745 1.396-1.335 2.23-1.769 0.83-0.43 1.718-0.644 2.666-0.645v0c3.138 0 4.706 1.527 4.707 4.581v0c0 0.274-0.021 0.558-0.063 0.852-0.042 0.295-0.084 0.526-0.127 0.695v0l-0.41 0.379h-8.718c-0.021 1.874 0.322 3.352 1.029 4.435 0.703 1.087 1.697 1.718 2.982 1.895 1.285 0.181 2.801-0.128 4.549-0.928v0l0.189 0.063 0.348 0.916c-0.421 0.295-0.92 0.611-1.498 0.947-0.581 0.337-1.167 0.621-1.756 0.853-0.59 0.232-1.116 0.347-1.579 0.348zM329.413 214.379v0l5.717-0.285c0.316-0.042 0.526-0.116 0.632-0.221 0.105-0.105 0.158-0.316 0.158-0.631v0c0-0.842-0.225-1.485-0.676-1.927-0.455-0.442-1.103-0.663-1.946-0.664v0c-0.969 0-1.811 0.333-2.527 0.999-0.716 0.661-1.169 1.571-1.358 2.729zM345.333 224.076v0c-0.758 0-1.421-0.057-1.99-0.171-0.569-0.118-1.004-0.23-1.308-0.335-0.307-0.105-0.461-0.158-0.461-0.158v0l-0.095-0.221c0.042-0.232 0.091-0.617 0.145-1.156 0.051-0.535 0.103-1.097 0.158-1.687 0.051-0.59 0.076-1.053 0.076-1.389v0l1.106-0.158c0 1.39 0.232 2.369 0.695 2.937 0.463 0.569 1.253 0.853 2.369 0.853v0c0.8 0 1.474-0.179 2.021-0.537 0.547-0.358 0.821-0.8 0.821-1.326v0c0-0.358-0.105-0.684-0.316-0.98-0.211-0.295-0.579-0.621-1.105-0.979-0.526-0.358-1.274-0.79-2.243-1.295v0c-1.2-0.611-2.074-1.232-2.621-1.863-0.547-0.632-0.821-1.327-0.822-2.085v0c0-0.863 0.253-1.632 0.758-2.306 0.505-0.674 1.2-1.207 2.085-1.598 0.884-0.387 1.874-0.581 2.969-0.581v0c0.863 0 1.607 0.084 2.23 0.252 0.619 0.168 0.929 0.253 0.929 0.253v0l0.063 0.158c0 0-0.036 0.179-0.107 0.537-0.076 0.358-0.16 0.828-0.253 1.409-0.097 0.577-0.177 1.213-0.24 1.907v0l-1.169 0.095c0 0 0.011-0.116 0.032-0.347 0.021-0.232 0.032-0.421 0.031-0.569v0c0-0.758-0.204-1.312-0.612-1.661-0.413-0.345-1.072-0.518-1.978-0.518v0c-0.716 0-1.32 0.168-1.813 0.505-0.497 0.337-0.745 0.748-0.745 1.232v0c0 0.505 0.217 0.979 0.651 1.421 0.43 0.442 1.129 0.916 2.097 1.422v0c1.137 0.59 2.028 1.12 2.672 1.592 0.64 0.476 1.093 0.935 1.358 1.377 0.261 0.442 0.392 0.927 0.392 1.453v0c0 0.8-0.267 1.548-0.802 2.242-0.539 0.695-1.245 1.247-2.117 1.656-0.876 0.413-1.83 0.619-2.861 0.619z" fill="#ffffff" fill-rule="nonzero" stroke="none" stroke-width="1" stroke-linecap="butt" stroke-linejoin="miter" stroke-miterlimit="10" stroke-dasharray="" stroke-dashoffset="0" font-family="none" font-weight="none" font-size="none" text-anchor="none" style="mix-blend-mode: normal" data-fill-palette-color="secondary" id="text-1"></path></g></g><g transform="matrix(1,0,0,1,29.33176499999999,65.97049913769122)"><svg viewBox="0 0 316.416 71.80604172461753" height="71.80604172461753" width="316.416"><g><svg viewBox="0 0 316.416 71.80604172461753" height="71.80604172461753" width="316.416"><g><svg viewBox="0 0 316.416 71.80604172461753" height="71.80604172461753" width="316.416"><g><svg viewBox="0 0 316.416 71.80604172461753" height="71.80604172461753" width="316.416"><g id="textblocktransform"><svg viewBox="0 0 316.416 71.80604172461753" height="71.80604172461753" width="316.416" id="textblock"><g><svg viewBox="0 0 316.416 71.80604172461753" height="71.80604172461753" width="316.416"><g transform="matrix(1,0,0,1,0,0)"><svg width="316.416" viewBox="1.75 -37.1 215.68 48.95" height="71.80604172461753" data-palette-color="#ffffff"><path d="M16.35 0.6L16.35 0.6Q11.1 0.6 8.25-2.27 5.4-5.15 5.4-10.45L5.4-10.45 5.4-27Q5.4-28.6 5.05-29.15 4.7-29.7 3.55-29.7L3.55-29.7Q3.1-29.7 2.48-29.65 1.85-29.6 1.85-29.6L1.85-29.6 1.75-29.8 2.1-32Q2.1-32 3.13-31.95 4.15-31.9 5.48-31.88 6.8-31.85 7.75-31.85L7.75-31.85Q8.55-31.85 9.47-31.93 10.4-32 11.2-32.08 12-32.15 12.5-32.23 13-32.3 13-32.3L13-32.3 12.8-30.05Q10.95-29.8 10.33-29.23 9.7-28.65 9.6-27.2L9.6-27.2 9.2-12.5Q9.2-7.55 11.35-4.9 13.5-2.25 17.55-2.25L17.55-2.25Q21.65-2.25 23.8-4.42 25.95-6.6 25.95-10.7L25.95-10.7Q25.95-11.75 25.93-13.7 25.9-15.65 25.85-17.93 25.8-20.2 25.75-22.28 25.7-24.35 25.68-25.68 25.65-27 25.65-27L25.65-27Q25.55-28.75 25.23-29.23 24.9-29.7 23.8-29.7L23.8-29.7Q23.35-29.7 22.5-29.65 21.65-29.6 21.65-29.6L21.65-29.6 21.55-29.8 21.9-32Q21.9-32 22.5-31.98 23.1-31.95 24-31.93 24.9-31.9 25.88-31.88 26.85-31.85 27.55-31.85L27.55-31.85Q28.65-31.85 29.75-31.95 30.85-32.05 31.63-32.18 32.4-32.3 32.4-32.3L32.4-32.3 32.2-30.05Q30.05-29.75 29.4-29.25 28.75-28.75 28.75-27.2L28.75-27.2 28.75-10.4Q28.75-5.15 25.5-2.27 22.25 0.6 16.35 0.6ZM35.5 0.3L35.75-1.75Q37.1-1.95 37.65-2.48 38.2-3 38.3-4.05 38.4-5.1 38.4-6.75L38.4-6.75 38.4-31.3Q38.4-34 36.55-34L36.55-34Q36.15-34 35.72-33.9 35.3-33.8 35.3-33.8L35.3-33.8Q35.3-34.05 35.32-34.27 35.35-34.5 35.4-34.7L35.4-34.7 35.5-35.65Q36.8-35.8 38.1-36.05 39.4-36.3 40.5-36.55 41.6-36.8 42.25-36.95 42.9-37.1 42.9-37.1L42.9-37.1 43.2-36.45Q43-36.1 42.8-34.2 42.6-32.3 42.42-29.2 42.25-26.1 42.1-22.18 41.95-18.25 41.87-13.83 41.8-9.4 41.8-4.9L41.8-4.9Q41.8-3.35 42.22-2.73 42.65-2.1 43.6-2.1L43.6-2.1Q44.05-2.1 44.7-2.15 45.35-2.2 45.35-2.2L45.35-2.2 45.45-2 45 0.15Q45 0.15 44.55 0.13 44.1 0.1 43.4 0.08 42.7 0.05 41.92 0.03 41.15 0 40.45 0L40.45 0Q39.4 0 38.25 0.08 37.1 0.15 36.3 0.23 35.5 0.3 35.5 0.3L35.5 0.3ZM48.95-3.55L43.05-11.7 43.15-12.5 49.1-18.2Q49.8-18.85 50.05-19.23 50.3-19.6 50.3-19.95L50.3-19.95Q50.3-20.5 49.65-20.75 49-21 47.55-21L47.55-21 47.4-21.25 47.85-22.7Q47.85-22.7 48.75-22.68 49.65-22.65 50.82-22.63 52-22.6 52.9-22.6L52.9-22.6Q53.85-22.6 54.95-22.68 56.05-22.75 56.85-22.83 57.65-22.9 57.65-22.9L57.65-22.9 57.8-22.65 57.4-21.1Q55.6-20.6 53.77-19.18 51.95-17.75 50.17-16 48.4-14.25 46.75-12.65L46.75-12.65 52-5.9Q53.75-3.7 55.12-2.75 56.5-1.8 58.05-1.8L58.05-1.8 58.2-1.55 57.9-0.1Q57.9-0.1 57.12 0.1 56.35 0.3 55.47 0.5 54.6 0.7 54.2 0.7L54.2 0.7Q53.7 0.7 53.27 0.55 52.85 0.4 52.45 0.2L52.45 0.2Q51.65-0.2 50.87-1.07 50.1-1.95 48.95-3.55L48.95-3.55ZM61.8 0.5L61.8 0.5 62.1-1.8Q64.35-2.1 65.17-2.98 66-3.85 66-6L66-6 66.05-27Q66.05-28.6 65.7-29.15 65.35-29.7 64.2-29.7L64.2-29.7Q63.9-29.7 63.4-29.68 62.9-29.65 62.5-29.6L62.5-29.6 62.4-29.8 62.75-32Q63.6-32 64.8-31.95 66-31.9 67.3-31.88 68.6-31.85 69.7-31.85L69.7-31.85Q73.7-31.85 76.42-31.9 79.15-31.95 81.1-32.1 83.05-32.25 84.7-32.45L84.7-32.45 84.85-32.15Q84.6-30.95 84.35-29.48 84.1-28 83.95-26.55 83.8-25.1 83.7-23.85L83.7-23.85 81.3-23.65Q81.35-24.1 81.37-24.78 81.4-25.45 81.4-25.8L81.4-25.8Q81.4-27 81.17-27.73 80.95-28.45 80.22-28.8 79.5-29.15 77.95-29.25 76.4-29.35 73.75-29.35L73.75-29.35Q72.15-29.35 71.4-29.25 70.65-29.15 70.47-28.75 70.3-28.35 70.25-27.4L70.25-27.4 69.75-15.75 69.55-5.25Q69.55-3.9 69.8-3.28 70.05-2.65 70.87-2.45 71.7-2.25 73.5-2.25L73.5-2.25Q76.45-2.25 78.25-2.45 80.05-2.65 81-3.25 81.95-3.85 82.4-5.08 82.85-6.3 83.15-8.35L83.15-8.35 85.35-8.6 85.5-8.35Q85.15-6.8 84.77-4.4 84.4-2 84.15 0.05L84.15 0.05 83.9 0.35Q80.9 0.25 77.92 0.18 74.95 0.1 72.55 0.05 70.15 0 68.75 0L68.75 0Q67.2 0 65.22 0.13 63.25 0.25 61.8 0.5ZM69.05-14.7L69.05-14.7 69.5-17.7Q69.85-17.7 70.85-17.7 71.85-17.7 73-17.68 74.15-17.65 75-17.65L75-17.65Q75.85-17.65 77.62-17.82 79.4-18 81.1-18.2L81.1-18.2 81.3-17.95 80.6-15Q79.2-15.05 77.12-15.1 75.05-15.15 73.6-15.15L73.6-15.15Q72.65-15.15 71.37-15.03 70.1-14.9 69.05-14.7ZM101.24 0.3L101.24 0.3 101.14 0.05 101.44-1.5Q102.69-1.55 103.22-1.8 103.74-2.05 103.74-2.55L103.74-2.55Q103.74-2.85 103.54-3.3 103.34-3.75 102.89-4.4L102.89-4.4 99.24-9.5Q98.34-8.4 97.14-6.93 95.94-5.45 95.07-4.23 94.19-3 94.19-2.55L94.19-2.55Q94.19-2.05 94.64-1.9 95.09-1.75 96.39-1.65L96.39-1.65 96.49-1.45 96.19 0.2Q96.19 0.2 95.72 0.18 95.24 0.15 94.54 0.1 93.84 0.05 93.17 0.03 92.49 0 92.04 0L92.04 0Q91.39 0 90.69 0.03 89.99 0.05 89.52 0.1 89.04 0.15 89.04 0.15L89.04 0.15 88.89-0.1 89.19-1.65Q90.09-2.15 90.74-2.68 91.39-3.2 92.09-4 92.79-4.8 93.84-6.05L93.84-6.05 98.14-11.05 94.34-16.45Q93.24-18.05 92.49-18.9 91.74-19.75 90.94-20.18 90.14-20.6 88.94-20.8L88.94-20.8 88.84-21 89.14-22.7Q89.14-22.7 90.07-22.68 90.99-22.65 92.19-22.63 93.39-22.6 94.19-22.6L94.19-22.6Q95.64-22.6 96.79-22.65 97.94-22.7 98.62-22.75 99.29-22.8 99.29-22.8L99.29-22.8 99.39-22.55 99.09-21Q96.84-21 96.84-20.05L96.84-20.05Q96.84-19.55 97.19-18.98 97.54-18.4 98.04-17.7L98.04-17.7 100.79-13.7 103.84-17.55Q104.54-18.4 104.97-19 105.39-19.6 105.39-20.1L105.39-20.1Q105.39-20.5 104.97-20.63 104.54-20.75 103.24-20.75L103.24-20.75 103.14-20.95 103.39-22.6 107.04-22.6Q107.74-22.6 108.57-22.65 109.39-22.7 109.99-22.73 110.59-22.75 110.59-22.75L110.59-22.75 110.74-22.5 110.44-20.9Q109.64-20.65 108.57-19.63 107.49-18.6 106.24-17.15L106.24-17.15 101.94-12.1 106.54-5.55Q107.84-3.7 108.97-2.83 110.09-1.95 111.59-1.8L111.59-1.8 111.69-1.6 111.39 0.1Q111.39 0.1 110.59 0.08 109.79 0.05 108.72 0.03 107.64 0 106.84 0L106.84 0Q106.09 0 105.14 0.05 104.19 0.1 103.29 0.15 102.39 0.2 101.82 0.25 101.24 0.3 101.24 0.3ZM114.44 11.85L114.44 11.85 114.69 9.9Q116.29 9.7 116.77 9.03 117.24 8.35 117.24 6.3L117.24 6.3Q117.24 5.5 117.27 3.95 117.29 2.4 117.32 0.73 117.34-0.95 117.34-2L117.34-2 117.34-16.9Q117.34-18.6 116.79-19.28 116.24-19.95 114.89-19.95L114.89-19.95 114.34-19.95 114.19-20.15 114.34-21.8Q116.09-22.1 117.69-22.43 119.29-22.75 120.32-23 121.34-23.25 121.34-23.25L121.34-23.25 121.64-22.85Q121.64-22.85 121.44-22 121.24-21.15 121.14-20.15L121.14-20.15 121.34-19.8Q123.54-21.35 125.07-22.2 126.59-23.05 127.14-23.05L127.14-23.05Q130.04-23.05 132.19-21.73 134.34-20.4 135.56-18.03 136.79-15.65 136.79-12.5L136.79-12.5Q136.79-9.8 135.81-7.43 134.84-5.05 133.12-3.25 131.39-1.45 129.14-0.43 126.89 0.6 124.34 0.6L124.34 0.6Q123.74 0.6 122.89 0.55 122.04 0.5 121.37 0.45 120.69 0.4 120.69 0.4L120.69 0.4Q120.69 1.65 120.72 2.95 120.74 4.25 120.74 5.55L120.74 5.55Q120.74 7.85 121.22 8.68 121.69 9.5 123.09 9.5L123.09 9.5Q123.49 9.5 123.94 9.47 124.39 9.45 124.79 9.45L124.79 9.45 124.89 9.6 124.49 11.5Q123.89 11.5 123.29 11.5 122.69 11.5 122.12 11.5 121.54 11.5 120.94 11.5 120.34 11.5 119.74 11.5L119.74 11.5Q118.34 11.5 117.12 11.58 115.89 11.65 115.17 11.75 114.44 11.85 114.44 11.85ZM125.74-2.15L125.74-2.15Q129.09-2.15 131.02-4.42 132.94-6.7 132.94-10.65L132.94-10.65Q132.94-13.2 132.06-15.23 131.19-17.25 129.69-18.45 128.19-19.65 126.34-19.65L126.34-19.65Q125.34-19.65 123.89-18.98 122.44-18.3 121.14-17.2L121.14-17.2Q121.04-15.15 120.94-12.7 120.84-10.25 120.79-7.75 120.74-5.25 120.74-3.1L120.74-3.1Q121.74-2.7 123.12-2.43 124.49-2.15 125.74-2.15ZM141.29 0.2L141.54-1.8Q143.04-1.95 143.54-2.78 144.04-3.6 144.04-5.95L144.04-5.95 144.04-16.95Q144.04-18.6 143.59-19.3 143.14-20 142.14-20L142.14-20Q141.74-20 141.41-19.93 141.09-19.85 141.09-19.85L141.09-19.85 140.84-20.2 140.99-21.75Q142.54-22.05 144.09-22.4 145.64-22.75 146.69-23 147.74-23.25 147.74-23.25L147.74-23.25 148.09-22.95Q148.09-22.95 147.96-22.15 147.84-21.35 147.74-20.18 147.64-19 147.64-17.8L147.64-17.8 147.84-17.65Q149.39-20 151.39-21.5 153.39-23 154.89-23L154.89-23Q155.74-23 156.09-22.9 156.44-22.8 156.44-22.8L156.44-22.8 156.59-22.6Q156.59-22.6 156.49-21.93 156.39-21.25 156.24-20.18 156.09-19.1 155.96-17.85 155.84-16.6 155.79-15.45L155.79-15.45 153.84-15.3Q153.84-17.35 153.59-18.03 153.34-18.7 152.49-18.7L152.49-18.7Q151.39-18.7 150.14-17.8 148.89-16.9 147.84-15.3L147.84-15.3Q147.84-15.3 147.79-14.38 147.74-13.45 147.69-12.05 147.64-10.65 147.59-9.18 147.54-7.7 147.49-6.58 147.44-5.45 147.44-5.1L147.44-5.1Q147.44-3.4 147.94-2.8 148.44-2.2 149.84-2.2L149.84-2.2Q150.39-2.2 151.21-2.25 152.04-2.3 152.04-2.3L152.04-2.3 152.09-2.1 151.64 0.1Q151.64 0.1 151.14 0.08 150.64 0.05 149.84 0.05 149.04 0.05 148.16 0.03 147.29 0 146.54 0L146.54 0Q145.09 0 143.89 0.05 142.69 0.1 141.99 0.15 141.29 0.2 141.29 0.2L141.29 0.2ZM169.54 0.6L169.54 0.6Q166.39 0.6 164.04-0.8 161.69-2.2 160.36-4.67 159.04-7.15 159.04-10.45L159.04-10.45Q159.04-13 159.91-15.3 160.79-17.6 162.34-19.38 163.89-21.15 165.86-22.18 167.84-23.2 170.09-23.2L170.09-23.2Q177.54-23.2 177.54-15.95L177.54-15.95Q177.54-15.3 177.44-14.6 177.34-13.9 177.24-13.5L177.24-13.5 176.59-12.9 162.79-12.9Q162.74-8.45 164.41-5.88 166.09-3.3 169.14-2.88 172.19-2.45 176.34-4.35L176.34-4.35 176.64-4.25 177.19-2.8Q176.19-2.1 174.81-1.3 173.44-0.5 172.04 0.05 170.64 0.6 169.54 0.6ZM162.99-14.75L162.99-14.75 172.04-15.2Q172.79-15.3 173.04-15.55 173.29-15.8 173.29-16.55L173.29-16.55Q173.29-18.55 172.21-19.6 171.14-20.65 169.14-20.65L169.14-20.65Q166.84-20.65 165.14-19.07 163.44-17.5 162.99-14.75ZM188.18 0.6L188.18 0.6Q186.38 0.6 185.03 0.33 183.68 0.05 182.96-0.2 182.23-0.45 182.23-0.45L182.23-0.45 182.08-0.8Q182.18-1.35 182.31-2.63 182.43-3.9 182.56-5.3 182.68-6.7 182.68-7.5L182.68-7.5 184.43-7.75Q184.43-4.45 185.53-3.1 186.63-1.75 189.28-1.75L189.28-1.75Q191.18-1.75 192.48-2.6 193.78-3.45 193.78-4.7L193.78-4.7Q193.78-5.55 193.28-6.25 192.78-6.95 191.53-7.8 190.28-8.65 187.98-9.85L187.98-9.85Q185.13-11.3 183.83-12.8 182.53-14.3 182.53-16.1L182.53-16.1Q182.53-18.15 183.73-19.75 184.93-21.35 187.03-22.28 189.13-23.2 191.73-23.2L191.73-23.2Q193.78-23.2 195.26-22.8 196.73-22.4 196.73-22.4L196.73-22.4 196.83-22.15Q196.83-22.15 196.66-21.3 196.48-20.45 196.26-19.07 196.03-17.7 195.88-16.05L195.88-16.05 194.03-15.9Q194.03-15.9 194.08-16.45 194.13-17 194.13-17.35L194.13-17.35Q194.13-19.15 193.16-19.98 192.18-20.8 190.03-20.8L190.03-20.8Q188.33-20.8 187.16-20 185.98-19.2 185.98-18.05L185.98-18.05Q185.98-16.85 187.01-15.8 188.03-14.75 190.33-13.55L190.33-13.55Q193.03-12.15 194.56-11.03 196.08-9.9 196.71-8.85 197.33-7.8 197.33-6.55L197.33-6.55Q197.33-4.65 196.06-3 194.78-1.35 192.71-0.38 190.63 0.6 188.18 0.6ZM208.28 0.6L208.28 0.6Q206.48 0.6 205.13 0.33 203.78 0.05 203.06-0.2 202.33-0.45 202.33-0.45L202.33-0.45 202.18-0.8Q202.28-1.35 202.41-2.63 202.53-3.9 202.66-5.3 202.78-6.7 202.78-7.5L202.78-7.5 204.53-7.75Q204.53-4.45 205.63-3.1 206.73-1.75 209.38-1.75L209.38-1.75Q211.28-1.75 212.58-2.6 213.88-3.45 213.88-4.7L213.88-4.7Q213.88-5.55 213.38-6.25 212.88-6.95 211.63-7.8 210.38-8.65 208.08-9.85L208.08-9.85Q205.23-11.3 203.93-12.8 202.63-14.3 202.63-16.1L202.63-16.1Q202.63-18.15 203.83-19.75 205.03-21.35 207.13-22.28 209.23-23.2 211.83-23.2L211.83-23.2Q213.88-23.2 215.36-22.8 216.83-22.4 216.83-22.4L216.83-22.4 216.93-22.15Q216.93-22.15 216.76-21.3 216.58-20.45 216.36-19.07 216.13-17.7 215.98-16.05L215.98-16.05 214.13-15.9Q214.13-15.9 214.18-16.45 214.23-17 214.23-17.35L214.23-17.35Q214.23-19.15 213.26-19.98 212.28-20.8 210.13-20.8L210.13-20.8Q208.43-20.8 207.26-20 206.08-19.2 206.08-18.05L206.08-18.05Q206.08-16.85 207.11-15.8 208.13-14.75 210.43-13.55L210.43-13.55Q213.13-12.15 214.66-11.03 216.18-9.9 216.81-8.85 217.43-7.8 217.43-6.55L217.43-6.55Q217.43-4.65 216.16-3 214.88-1.35 212.81-0.38 210.73 0.6 208.28 0.6Z" opacity="1" transform="matrix(1,0,0,1,0,0)" fill="#ffffff" class="wordmark-text-0" data-fill-palette-color="primary" id="text-0"></path></svg></g></svg></g></svg></g></svg></g></svg></g></svg></g></svg></g></svg></g><defs></defs></svg><rect width="375.07953" height="203.74703999999997" fill="none" stroke="none" visibility="hidden"></rect></g></svg></g></svg>