<svg xmlns="http://www.w3.org/2000/svg" version="1.1" xmlns:xlink="http://www.w3.org/1999/xlink" xmlns:svgjs="http://svgjs.dev/svgjs" width="2000" height="2572" viewBox="0 0 2000 2572"><g transform="matrix(1,0,0,1,1.9218750000001137,1.0412955465585583)"><svg viewBox="0 0 192 247" data-background-color="#f8f8f8" preserveAspectRatio="xMidYMid meet" height="2572" width="2000" xmlns="http://www.w3.org/2000/svg" xmlns:xlink="http://www.w3.org/1999/xlink"><g id="tight-bounds" transform="matrix(1,0,0,1,-0.1845000000000141,-0.09999999999999432)"><svg viewBox="0 0 192.3686242637691 247.2" height="247.2" width="192.3686242637691"><g><svg></svg></g><g><svg viewBox="0 0 192.3686242637691 247.2" height="247.2" width="192.3686242637691"><g transform="matrix(1,0,0,1,0,47.215199999999996)"><svg viewBox="0 0 192.3686242637691 152.7696" height="152.7696" width="192.3686242637691"><g><svg viewBox="0 0 192.3686242637691 152.7696" height="152.7696" width="192.3686242637691"><g><svg viewBox="0 0 244.43135999999996 194.11523702251148" height="152.7696" width="192.3686242637691"><g><svg viewBox="0 0 244.43135999999996 194.11523702251148" height="194.11523702251148" width="244.43135999999996"><g id="textblocktransform"><svg viewBox="0 0 244.43135999999996 194.11523702251148" height="194.11523702251148" width="244.43135999999996" id="textblock"><g><svg viewBox="0 0 244.43135999999996 137.15545752122242" height="137.15545752122242" width="244.43135999999996"><g transform="matrix(1,0,0,1,0,0)"><svg width="244.43135999999996" viewBox="1.75 -32.45 58.9 33.050000000000004" height="137.15545752122242" data-palette-color="#111111"><path d="M16.35 0.6L16.35 0.6Q11.1 0.6 8.25-2.27 5.4-5.15 5.4-10.45L5.4-10.45 5.4-27Q5.4-28.6 5.05-29.15 4.7-29.7 3.55-29.7L3.55-29.7Q3.1-29.7 2.48-29.65 1.85-29.6 1.85-29.6L1.85-29.6 1.75-29.8 2.1-32Q2.1-32 3.13-31.95 4.15-31.9 5.48-31.88 6.8-31.85 7.75-31.85L7.75-31.85Q8.55-31.85 9.47-31.93 10.4-32 11.2-32.08 12-32.15 12.5-32.23 13-32.3 13-32.3L13-32.3 12.8-30.05Q10.95-29.8 10.33-29.23 9.7-28.65 9.6-27.2L9.6-27.2 9.2-12.5Q9.2-7.55 11.35-4.9 13.5-2.25 17.55-2.25L17.55-2.25Q21.65-2.25 23.8-4.42 25.95-6.6 25.95-10.7L25.95-10.7Q25.95-11.75 25.93-13.7 25.9-15.65 25.85-17.93 25.8-20.2 25.75-22.28 25.7-24.35 25.68-25.68 25.65-27 25.65-27L25.65-27Q25.55-28.75 25.23-29.23 24.9-29.7 23.8-29.7L23.8-29.7Q23.35-29.7 22.5-29.65 21.65-29.6 21.65-29.6L21.65-29.6 21.55-29.8 21.9-32Q21.9-32 22.5-31.98 23.1-31.95 24-31.93 24.9-31.9 25.88-31.88 26.85-31.85 27.55-31.85L27.55-31.85Q28.65-31.85 29.75-31.95 30.85-32.05 31.63-32.18 32.4-32.3 32.4-32.3L32.4-32.3 32.2-30.05Q30.05-29.75 29.4-29.25 28.75-28.75 28.75-27.2L28.75-27.2 28.75-10.4Q28.75-5.15 25.5-2.27 22.25 0.6 16.35 0.6ZM36.95 0.5L36.95 0.5 37.25-1.8Q39.5-2.1 40.32-2.98 41.15-3.85 41.15-6L41.15-6 41.2-27Q41.2-28.6 40.85-29.15 40.5-29.7 39.35-29.7L39.35-29.7Q39.05-29.7 38.55-29.68 38.05-29.65 37.65-29.6L37.65-29.6 37.55-29.8 37.9-32Q38.75-32 39.95-31.95 41.15-31.9 42.45-31.88 43.75-31.85 44.85-31.85L44.85-31.85Q48.85-31.85 51.57-31.9 54.3-31.95 56.25-32.1 58.2-32.25 59.85-32.45L59.85-32.45 60-32.15Q59.75-30.95 59.5-29.48 59.25-28 59.1-26.55 58.95-25.1 58.85-23.85L58.85-23.85 56.45-23.65Q56.5-24.1 56.52-24.78 56.55-25.45 56.55-25.8L56.55-25.8Q56.55-27 56.32-27.73 56.1-28.45 55.37-28.8 54.65-29.15 53.1-29.25 51.55-29.35 48.9-29.35L48.9-29.35Q47.3-29.35 46.55-29.25 45.8-29.15 45.62-28.75 45.45-28.35 45.4-27.4L45.4-27.4 44.9-15.75 44.7-5.25Q44.7-3.9 44.95-3.28 45.2-2.65 46.02-2.45 46.85-2.25 48.65-2.25L48.65-2.25Q51.6-2.25 53.4-2.45 55.2-2.65 56.15-3.25 57.1-3.85 57.55-5.08 58-6.3 58.3-8.35L58.3-8.35 60.5-8.6 60.65-8.35Q60.3-6.8 59.92-4.4 59.55-2 59.3 0.05L59.3 0.05 59.05 0.35Q56.05 0.25 53.07 0.18 50.1 0.1 47.7 0.05 45.3 0 43.9 0L43.9 0Q42.35 0 40.37 0.13 38.4 0.25 36.95 0.5ZM44.2-14.7L44.2-14.7 44.65-17.7Q45-17.7 46-17.7 47-17.7 48.15-17.68 49.3-17.65 50.15-17.65L50.15-17.65Q51-17.65 52.77-17.82 54.55-18 56.25-18.2L56.25-18.2 56.45-17.95 55.75-15Q54.35-15.05 52.27-15.1 50.2-15.15 48.75-15.15L48.75-15.15Q47.8-15.15 46.52-15.03 45.25-14.9 44.2-14.7Z" opacity="1" transform="matrix(1,0,0,1,0,0)" fill="#000000" class="wordmark-text-0" data-fill-palette-color="primary" id="text-0"></path></svg></g></svg></g><g transform="matrix(1,0,0,1,0,169.5345693110025)"><svg viewBox="0 0 244.43135999999996 24.58066771150895" height="24.58066771150895" width="244.43135999999996"><g transform="matrix(1,0,0,1,0,0)"><svg width="244.43135999999996" viewBox="2.8 -37.1 488.69 49.150000000000006" height="24.58066771150895" data-palette-color="#111111"><path d="M2.8 0.6L2.8 0.6 3.1-1.7Q5.45-2.15 6.28-3.03 7.1-3.9 7.1-6L7.1-6 7.15-27Q7.15-28.6 6.78-29.15 6.4-29.7 5.3-29.7L5.3-29.7Q4.95-29.7 4.33-29.68 3.7-29.65 3.2-29.6L3.2-29.6 3.1-29.8 3.45-32Q4.75-31.95 6.53-31.9 8.3-31.85 9.4-31.85L9.4-31.85Q10.45-31.85 12.08-31.98 13.7-32.1 15.15-32.3L15.15-32.3 14.95-30.05Q12.9-29.8 12.18-29.23 11.45-28.65 11.35-27.2L11.35-27.2Q11.2-24.45 11.08-21.35 10.95-18.25 10.85-15.23 10.75-12.2 10.7-9.68 10.65-7.15 10.65-5.6L10.65-5.6Q10.65-3.6 11.1-2.9 11.55-2.2 12.85-2.2L12.85-2.2Q13.55-2.2 14.3-2.25 15.05-2.3 15.5-2.35L15.5-2.35 15.6-2.15 15.15 0.15Q14.25 0.1 13.05 0.08 11.85 0.05 10.65 0.03 9.45 0 8.6 0L8.6 0Q7.5 0 5.88 0.18 4.25 0.35 2.8 0.6ZM28.35 0.6L28.35 0.6Q24.95 0.6 23.55-0.78 22.15-2.15 22.15-5.45L22.15-5.45 22.15-17.75Q22.15-19.1 21.55-19.65 20.95-20.2 19.3-20.25L19.3-20.25 19.1-20.55 19.35-22.05Q20.55-22.65 21.67-23.43 22.8-24.2 23.67-24.93 24.55-25.65 25.05-26.13 25.55-26.6 25.55-26.6L25.55-26.6 26.55-26.2Q26.55-26.2 26.42-25.25 26.3-24.3 26.15-22.45L26.15-22.45 33.5-22.6 33.65-22.45 33.2-19.8 25.95-19.95Q25.8-17.6 25.7-14.45 25.6-11.3 25.6-7.45L25.6-7.45Q25.6-4.9 26.47-3.85 27.35-2.8 29.5-2.8L29.5-2.8Q30.75-2.8 31.82-3.25 32.9-3.7 32.9-3.7L32.9-3.7 33.4-2.4Q33.4-2.4 32.8-1.95 32.2-1.5 31.32-0.9 30.45-0.3 29.62 0.15 28.8 0.6 28.35 0.6ZM46.64 0.6L46.64 0.6 46.84-1.45Q48.34-1.85 48.99-2.63 49.64-3.4 49.64-4.7L49.64-4.7 49.64-17.4Q49.64-18.8 49.19-19.45 48.74-20.1 47.79-20.1L47.79-20.1Q47.39-20.1 46.97-20 46.54-19.9 46.54-19.9L46.54-19.9 46.74-21.75Q47.99-21.95 49.27-22.2 50.54-22.45 51.59-22.68 52.64-22.9 53.29-23.05 53.94-23.2 53.94-23.2L53.94-23.2 54.19-22.6Q53.99-22.1 53.77-20.38 53.54-18.65 53.39-16.18 53.24-13.7 53.14-10.78 53.04-7.85 53.04-4.9L53.04-4.9Q53.04-3.45 53.44-2.78 53.84-2.1 54.79-2.1L54.79-2.1Q55.24-2.1 55.89-2.15 56.54-2.2 56.54-2.2L56.54-2.2 56.64-2 56.24 0.15Q56.24 0.15 55.82 0.13 55.39 0.1 54.72 0.08 54.04 0.05 53.27 0.03 52.49 0 51.79 0L51.79 0Q50.74 0 49.54 0.15 48.34 0.3 47.49 0.45 46.64 0.6 46.64 0.6ZM51.04-29.1L51.04-29.1Q49.79-29.1 49.19-29.9 48.59-30.7 48.59-31.65L48.59-31.65Q48.59-32.85 49.44-33.73 50.29-34.6 51.54-34.6L51.54-34.6Q52.74-34.6 53.37-33.83 53.99-33.05 53.99-32.05L53.99-32.05Q53.99-30.85 53.17-29.98 52.34-29.1 51.04-29.1ZM67.09 0.6L67.09 0.6Q65.29 0.6 63.94 0.33 62.59 0.05 61.87-0.2 61.14-0.45 61.14-0.45L61.14-0.45 60.99-0.8Q61.09-1.35 61.22-2.63 61.34-3.9 61.47-5.3 61.59-6.7 61.59-7.5L61.59-7.5 63.34-7.75Q63.34-4.45 64.44-3.1 65.54-1.75 68.19-1.75L68.19-1.75Q70.09-1.75 71.39-2.6 72.69-3.45 72.69-4.7L72.69-4.7Q72.69-5.55 72.19-6.25 71.69-6.95 70.44-7.8 69.19-8.65 66.89-9.85L66.89-9.85Q64.04-11.3 62.74-12.8 61.44-14.3 61.44-16.1L61.44-16.1Q61.44-18.15 62.64-19.75 63.84-21.35 65.94-22.28 68.04-23.2 70.64-23.2L70.64-23.2Q72.69-23.2 74.17-22.8 75.64-22.4 75.64-22.4L75.64-22.4 75.74-22.15Q75.74-22.15 75.57-21.3 75.39-20.45 75.17-19.07 74.94-17.7 74.79-16.05L74.79-16.05 72.94-15.9Q72.94-15.9 72.99-16.45 73.04-17 73.04-17.35L73.04-17.35Q73.04-19.15 72.07-19.98 71.09-20.8 68.94-20.8L68.94-20.8Q67.24-20.8 66.07-20 64.89-19.2 64.89-18.05L64.89-18.05Q64.89-16.85 65.92-15.8 66.94-14.75 69.24-13.55L69.24-13.55Q71.94-12.15 73.47-11.03 74.99-9.9 75.62-8.85 76.24-7.8 76.24-6.55L76.24-6.55Q76.24-4.65 74.97-3 73.69-1.35 71.62-0.38 69.54 0.6 67.09 0.6ZM104.59 0.6L104.79-1.45Q106.29-1.85 106.94-2.63 107.59-3.4 107.59-4.7L107.59-4.7 107.79-14.6Q107.79-17.1 106.71-18.45 105.64-19.8 103.64-19.8L103.64-19.8Q102.44-19.8 101.19-19.3 99.94-18.8 98.96-18.2 97.99-17.6 97.49-17.2L97.49-17.2Q97.44-15.9 97.36-14.13 97.29-12.35 97.21-10.5 97.14-8.65 97.09-7.15 97.04-5.65 97.04-4.9L97.04-4.9Q97.04-3.35 97.46-2.73 97.89-2.1 98.84-2.1L98.84-2.1Q99.29-2.1 99.94-2.15 100.59-2.2 100.59-2.2L100.59-2.2 100.69-2 100.24 0.15Q100.24 0.15 99.49 0.1 98.74 0.05 97.69 0.03 96.64 0 95.69 0L95.69 0Q94.64 0 93.49 0.03 92.34 0.05 91.54 0.08 90.74 0.1 90.74 0.1L90.74 0.1 91.04-1.95Q92.49-2.1 93.06-2.7 93.64-3.3 93.64-4.7L93.64-4.7 93.64-16.9Q93.64-18.6 93.09-19.28 92.54-19.95 91.19-19.95L91.19-19.95 90.64-19.95 90.49-20.15 90.64-21.8Q92.39-22.1 93.99-22.43 95.59-22.75 96.61-23 97.64-23.25 97.64-23.25L97.64-23.25 97.94-22.85Q97.94-22.85 97.71-21.85 97.49-20.85 97.39-19.55L97.39-19.55 97.49-19.4Q97.94-19.7 98.89-20.33 99.84-20.95 100.96-21.63 102.09-22.3 103.14-22.75 104.19-23.2 104.84-23.2L104.84-23.2Q107.24-23.2 108.91-22.18 110.59-21.15 111.24-19.25L111.24-19.25Q111.54-19.5 112.46-20.13 113.39-20.75 114.59-21.45 115.79-22.15 116.91-22.68 118.04-23.2 118.79-23.2L118.79-23.2Q121.94-23.2 123.79-21.45 125.64-19.7 125.64-16.75L125.64-16.75Q125.64-16.1 125.54-14.6 125.44-13.1 125.29-11.25 125.14-9.4 125.04-7.7 124.94-6 124.94-4.9L124.94-4.9Q124.94-3.35 125.36-2.73 125.79-2.1 126.74-2.1L126.74-2.1Q127.19-2.1 127.84-2.15 128.49-2.2 128.49-2.2L128.49-2.2 128.59-2 128.14 0.15Q128.14 0.15 127.69 0.13 127.24 0.1 126.54 0.08 125.84 0.05 125.06 0.03 124.29 0 123.59 0L123.59 0Q122.79 0 121.94 0.05 121.09 0.1 120.34 0.15 119.59 0.2 119.11 0.25 118.64 0.3 118.64 0.3L118.64 0.3 118.89-1.75Q120.34-2 120.94-2.65 121.54-3.3 121.54-4.7L121.54-4.7 121.74-14.6Q121.74-17.1 120.66-18.45 119.59-19.8 117.59-19.8L117.59-19.8Q116.39-19.8 115.21-19.35 114.04-18.9 113.06-18.3 112.09-17.7 111.54-17.3L111.54-17.3 110.99-4.9Q110.99-3.45 111.39-2.78 111.79-2.1 112.74-2.1L112.74-2.1Q113.19-2.1 113.84-2.15 114.49-2.2 114.49-2.2L114.49-2.2 114.59-2 114.19 0.15Q114.19 0.15 113.76 0.13 113.34 0.1 112.66 0.08 111.99 0.05 111.21 0.03 110.44 0 109.74 0L109.74 0Q108.94 0 108.06 0.1 107.19 0.2 106.39 0.3 105.59 0.4 105.09 0.5 104.59 0.6 104.59 0.6L104.59 0.6ZM141.63 0.6L141.63 0.6Q138.78 0.6 136.58-0.8 134.38-2.2 133.16-4.73 131.93-7.25 131.93-10.5L131.93-10.5Q131.93-14.1 133.46-16.98 134.98-19.85 137.63-21.53 140.28-23.2 143.53-23.2L143.53-23.2Q146.38-23.2 148.58-21.8 150.78-20.4 152.01-17.9 153.23-15.4 153.23-12.1L153.23-12.1Q153.23-8.55 151.71-5.65 150.18-2.75 147.56-1.07 144.93 0.6 141.63 0.6ZM143.03-1.85L143.03-1.85Q145.83-1.85 147.48-4.13 149.13-6.4 149.13-10.3L149.13-10.3Q149.13-13.3 148.23-15.6 147.33-17.9 145.73-19.2 144.13-20.5 142.03-20.5L142.03-20.5Q139.23-20.5 137.58-18.2 135.93-15.9 135.93-11.95L135.93-11.95Q135.93-8.95 136.83-6.68 137.73-4.4 139.33-3.13 140.93-1.85 143.03-1.85ZM157.73 0.2L157.98-1.8Q159.48-1.95 159.98-2.78 160.48-3.6 160.48-5.95L160.48-5.95 160.48-16.95Q160.48-18.6 160.03-19.3 159.58-20 158.58-20L158.58-20Q158.18-20 157.86-19.93 157.53-19.85 157.53-19.85L157.53-19.85 157.28-20.2 157.43-21.75Q158.98-22.05 160.53-22.4 162.08-22.75 163.13-23 164.18-23.25 164.18-23.25L164.18-23.25 164.53-22.95Q164.53-22.95 164.41-22.15 164.28-21.35 164.18-20.18 164.08-19 164.08-17.8L164.08-17.8 164.28-17.65Q165.83-20 167.83-21.5 169.83-23 171.33-23L171.33-23Q172.18-23 172.53-22.9 172.88-22.8 172.88-22.8L172.88-22.8 173.03-22.6Q173.03-22.6 172.93-21.93 172.83-21.25 172.68-20.18 172.53-19.1 172.41-17.85 172.28-16.6 172.23-15.45L172.23-15.45 170.28-15.3Q170.28-17.35 170.03-18.03 169.78-18.7 168.93-18.7L168.93-18.7Q167.83-18.7 166.58-17.8 165.33-16.9 164.28-15.3L164.28-15.3Q164.28-15.3 164.23-14.38 164.18-13.45 164.13-12.05 164.08-10.65 164.03-9.18 163.98-7.7 163.93-6.58 163.88-5.45 163.88-5.1L163.88-5.1Q163.88-3.4 164.38-2.8 164.88-2.2 166.28-2.2L166.28-2.2Q166.83-2.2 167.66-2.25 168.48-2.3 168.48-2.3L168.48-2.3 168.53-2.1 168.08 0.1Q168.08 0.1 167.58 0.08 167.08 0.05 166.28 0.05 165.48 0.05 164.61 0.03 163.73 0 162.98 0L162.98 0Q161.53 0 160.33 0.05 159.13 0.1 158.43 0.15 157.73 0.2 157.73 0.2L157.73 0.2ZM185.98 0.6L185.98 0.6Q182.83 0.6 180.48-0.8 178.13-2.2 176.8-4.67 175.48-7.15 175.48-10.45L175.48-10.45Q175.48-13 176.35-15.3 177.23-17.6 178.78-19.38 180.33-21.15 182.3-22.18 184.28-23.2 186.53-23.2L186.53-23.2Q193.98-23.2 193.98-15.95L193.98-15.95Q193.98-15.3 193.88-14.6 193.78-13.9 193.68-13.5L193.68-13.5 193.03-12.9 179.23-12.9Q179.18-8.45 180.85-5.88 182.53-3.3 185.58-2.88 188.63-2.45 192.78-4.35L192.78-4.35 193.08-4.25 193.63-2.8Q192.63-2.1 191.25-1.3 189.88-0.5 188.48 0.05 187.08 0.6 185.98 0.6ZM179.43-14.75L179.43-14.75 188.48-15.2Q189.23-15.3 189.48-15.55 189.73-15.8 189.73-16.55L189.73-16.55Q189.73-18.55 188.65-19.6 187.58-20.65 185.58-20.65L185.58-20.65Q183.28-20.65 181.58-19.07 179.88-17.5 179.43-14.75ZM216.27 0.6L216.27 0.6Q212.87 0.6 211.47-0.78 210.07-2.15 210.07-5.45L210.07-5.45 210.07-17.75Q210.07-19.1 209.47-19.65 208.87-20.2 207.22-20.25L207.22-20.25 207.02-20.55 207.27-22.05Q208.47-22.65 209.6-23.43 210.72-24.2 211.6-24.93 212.47-25.65 212.97-26.13 213.47-26.6 213.47-26.6L213.47-26.6 214.47-26.2Q214.47-26.2 214.35-25.25 214.22-24.3 214.07-22.45L214.07-22.45 221.42-22.6 221.57-22.45 221.12-19.8 213.87-19.95Q213.72-17.6 213.62-14.45 213.52-11.3 213.52-7.45L213.52-7.45Q213.52-4.9 214.4-3.85 215.27-2.8 217.42-2.8L217.42-2.8Q218.67-2.8 219.75-3.25 220.82-3.7 220.82-3.7L220.82-3.7 221.32-2.4Q221.32-2.4 220.72-1.95 220.12-1.5 219.25-0.9 218.37-0.3 217.55 0.15 216.72 0.6 216.27 0.6ZM223.92 0.1L224.22-1.95Q225.67-2.1 226.25-2.7 226.82-3.3 226.82-4.7L226.82-4.7 226.82-31.3Q226.82-32.65 226.4-33.27 225.97-33.9 224.97-33.9L224.97-33.9 223.92-33.9 223.72-34.05 223.92-35.65Q225.07-35.8 226.45-36.05 227.82-36.3 229.12-36.58 230.42-36.85 231.32-37.1L231.32-37.1 231.62-36.45Q231.42-36.1 231.17-33.8 230.92-31.5 230.75-27.75 230.57-24 230.42-19.3L230.42-19.3Q230.77-19.55 231.7-20.18 232.62-20.8 233.8-21.5 234.97-22.2 236.1-22.7 237.22-23.2 237.92-23.2L237.92-23.2Q241.17-23.2 242.97-21.53 244.77-19.85 244.77-16.75L244.77-16.75Q244.77-16.1 244.65-14.6 244.52-13.1 244.37-11.25 244.22-9.4 244.1-7.7 243.97-6 243.97-4.9L243.97-4.9Q243.97-3.45 244.37-2.78 244.77-2.1 245.72-2.1L245.72-2.1Q246.02-2.1 246.55-2.13 247.07-2.15 247.47-2.2L247.47-2.2 247.57-2 247.17 0.15Q246.37 0.1 245.05 0.05 243.72 0 242.72 0L242.72 0Q242.12 0 241.27 0.08 240.42 0.15 239.47 0.28 238.52 0.4 237.57 0.6L237.57 0.6 237.77-1.45Q239.27-1.85 239.92-2.63 240.57-3.4 240.57-4.7L240.57-4.7 240.87-14.6Q240.87-17.1 239.8-18.45 238.72-19.8 236.72-19.8L236.72-19.8Q235.47-19.8 233.65-19 231.82-18.2 230.37-17.05L230.37-17.05Q230.32-15.2 230.3-13.2 230.27-11.2 230.25-9.13 230.22-7.05 230.22-4.9L230.22-4.9Q230.22-3.35 230.65-2.73 231.07-2.1 232.02-2.1L232.02-2.1Q232.32-2.1 232.85-2.13 233.37-2.15 233.77-2.2L233.77-2.2 233.87-2 233.42 0.15Q232.57 0.1 231.22 0.05 229.87 0 228.87 0L228.87 0Q227.82 0 226.4 0.03 224.97 0.05 223.92 0.1L223.92 0.1ZM267.77 0.6L267.77 0.6Q265.77 0.6 264.64-0.43 263.52-1.45 263.32-3.45L263.32-3.45 263.12-3.5Q261.92-2.3 260.84-1.43 259.77-0.55 258.94-0.08 258.12 0.4 257.62 0.4L257.62 0.4Q255.77 0.4 254.32-0.4 252.87-1.2 252.04-2.6 251.22-4 251.22-5.8L251.22-5.8Q251.22-7.25 251.94-8.35 252.67-9.45 253.87-9.8L253.87-9.8 263.37-12.4 263.42-14.6Q263.42-17.1 262.27-18.5 261.12-19.9 259.02-19.9L259.02-19.9Q257.62-19.9 256.07-19.25 254.52-18.6 253.02-17.4L253.02-17.4 252.77-17.55 252.17-19.7Q253.47-20.45 255.07-21.28 256.67-22.1 258.12-22.65 259.57-23.2 260.32-23.2L260.32-23.2Q262.52-23.2 264.07-22.43 265.62-21.65 266.44-20.23 267.27-18.8 267.27-16.75L267.27-16.75Q267.27-16.1 267.14-14.65 267.02-13.2 266.82-11.43 266.62-9.65 266.49-8 266.37-6.35 266.37-5.25L266.37-5.25Q266.37-4.15 266.92-3.55 267.47-2.95 268.42-2.95L268.42-2.95Q269.27-2.95 270.12-3.38 270.97-3.8 271.42-4.2L271.42-4.2 272.12-3.4Q271.72-2.75 271.04-1.93 270.37-1.1 269.54-0.4 268.72 0.3 267.77 0.6ZM258.47-3L258.47-3Q259.42-3 260.69-3.68 261.97-4.35 263.02-5.4L263.02-5.4 263.27-10.5 256.47-8.45Q255.02-8 255.02-6.35L255.02-6.35Q255.02-4.95 255.99-3.98 256.97-3 258.47-3ZM288.62 0.6L288.82-1.45Q290.32-1.85 290.97-2.63 291.62-3.4 291.62-4.7L291.62-4.7 291.82-14.6Q291.82-17.1 290.74-18.45 289.67-19.8 287.67-19.8L287.67-19.8Q286.47-19.8 285.22-19.3 283.97-18.8 282.99-18.2 282.02-17.6 281.52-17.2L281.52-17.2Q281.47-15.9 281.39-14.13 281.32-12.35 281.24-10.5 281.17-8.65 281.12-7.15 281.07-5.65 281.07-4.9L281.07-4.9Q281.07-3.35 281.49-2.73 281.92-2.1 282.87-2.1L282.87-2.1Q283.32-2.1 283.97-2.15 284.62-2.2 284.62-2.2L284.62-2.2 284.72-2 284.27 0.15Q284.27 0.15 283.52 0.1 282.77 0.05 281.72 0.03 280.67 0 279.72 0L279.72 0Q278.67 0 277.52 0.08 276.37 0.15 275.57 0.23 274.77 0.3 274.77 0.3L274.77 0.3 275.02-1.75Q276.47-2 277.07-2.65 277.67-3.3 277.67-4.7L277.67-4.7 277.67-16.9Q277.67-18.6 277.12-19.28 276.57-19.95 275.22-19.95L275.22-19.95 274.67-19.95 274.52-20.15 274.67-21.8Q276.42-22.1 278.02-22.43 279.62-22.75 280.64-23 281.67-23.25 281.67-23.25L281.67-23.25 281.97-22.85Q281.97-22.85 281.74-21.85 281.52-20.85 281.42-19.55L281.42-19.55 281.52-19.4Q281.97-19.7 282.94-20.33 283.92-20.95 285.04-21.6 286.17-22.25 287.22-22.73 288.27-23.2 288.87-23.2L288.87-23.2Q292.02-23.2 293.87-21.45 295.72-19.7 295.72-16.75L295.72-16.75Q295.72-16.1 295.62-14.6 295.52-13.1 295.37-11.25 295.22-9.4 295.12-7.7 295.02-6 295.02-4.9L295.02-4.9Q295.02-3.45 295.42-2.78 295.82-2.1 296.77-2.1L296.77-2.1Q297.22-2.1 297.87-2.15 298.52-2.2 298.52-2.2L298.52-2.2 298.62-2 298.22 0.15Q298.22 0.15 297.79 0.13 297.37 0.1 296.69 0.08 296.02 0.05 295.24 0.03 294.47 0 293.77 0L293.77 0Q292.97 0 292.09 0.1 291.22 0.2 290.42 0.3 289.62 0.4 289.12 0.5 288.62 0.6 288.62 0.6L288.62 0.6ZM311.41 12.05L311.41 12.05 310.51 11.1 310.61 10.7Q312.06 9.25 312.86 7.65 313.66 6.05 313.99 3.78 314.31 1.5 314.31-1.9L314.31-1.9 314.31-17.4Q314.31-18.95 313.89-19.53 313.46-20.1 312.31-20.1L312.31-20.1Q311.91-20.1 311.44-20.03 310.96-19.95 310.96-19.95L310.96-19.95 311.16-21.8Q312.31-21.95 313.56-22.18 314.81-22.4 315.91-22.65 317.01-22.9 317.69-23.05 318.36-23.2 318.36-23.2L318.36-23.2 318.61-22.6Q318.21-21.9 317.99-15.9 317.76-9.9 317.76 0.7L317.76 0.7Q317.76 4.3 316.14 7.23 314.51 10.15 311.41 12.05ZM315.81-30.1L315.81-30.1Q314.71-30.1 314.04-30.83 313.36-31.55 313.36-32.65L313.36-32.65Q313.36-33.9 314.21-34.75 315.06-35.6 316.31-35.6L316.31-35.6Q317.36-35.6 318.06-34.9 318.76-34.2 318.76-33.05L318.76-33.05Q318.76-31.8 317.91-30.95 317.06-30.1 315.81-30.1ZM326.56-5.2L326.76-17.35Q326.76-18.65 326.31-19.35 325.86-20.05 324.91-20.05L324.91-20.05Q324.51-20.05 324.08-19.95 323.66-19.85 323.66-19.85L323.66-19.85 323.86-21.7Q325.01-21.9 326.26-22.15 327.51-22.4 328.58-22.65 329.66-22.9 330.33-23.05 331.01-23.2 331.01-23.2L331.01-23.2 331.31-22.6Q331.06-21.95 330.83-20.38 330.61-18.8 330.41-16.7 330.21-14.6 330.11-12.28 330.01-9.95 330.01-7.75L330.01-7.75Q330.01-2.85 334.01-2.85L334.01-2.85Q335.76-2.85 337.28-3.83 338.81-4.8 340.06-5.7L340.06-5.7 340.06-17.3Q340.06-18.8 339.51-19.4 338.96-20 337.56-20L337.56-20Q337.36-20 336.86-19.98 336.36-19.95 336.36-19.95L336.36-19.95 336.56-21.75Q337.91-21.95 339.26-22.2 340.61-22.45 341.73-22.68 342.86-22.9 343.56-23.05 344.26-23.2 344.26-23.2L344.26-23.2 344.56-22.6Q344.26-21.85 344.01-19.25 343.76-16.65 343.61-12.95 343.46-9.25 343.46-5.25L343.46-5.25Q343.46-4.15 344.01-3.55 344.56-2.95 345.51-2.95L345.51-2.95Q346.31-2.95 346.98-3.28 347.66-3.6 348.08-3.9 348.51-4.2 348.51-4.2L348.51-4.2 349.21-3.4Q349.21-3.4 348.78-2.8 348.36-2.2 347.68-1.4 347.01-0.6 346.26 0 345.51 0.6 344.86 0.6L344.86 0.6Q340.81 0.6 340.41-3.45L340.41-3.45 340.16-3.55Q337.76-1.7 335.83-0.55 333.91 0.6 333.21 0.6L333.21 0.6Q330.01 0.6 328.28-0.9 326.56-2.4 326.56-5.2L326.56-5.2ZM357.86 0.6L357.86 0.6Q356.06 0.6 354.71 0.33 353.36 0.05 352.63-0.2 351.91-0.45 351.91-0.45L351.91-0.45 351.76-0.8Q351.86-1.35 351.98-2.63 352.11-3.9 352.23-5.3 352.36-6.7 352.36-7.5L352.36-7.5 354.11-7.75Q354.11-4.45 355.21-3.1 356.31-1.75 358.96-1.75L358.96-1.75Q360.86-1.75 362.16-2.6 363.46-3.45 363.46-4.7L363.46-4.7Q363.46-5.55 362.96-6.25 362.46-6.95 361.21-7.8 359.96-8.65 357.66-9.85L357.66-9.85Q354.81-11.3 353.51-12.8 352.21-14.3 352.21-16.1L352.21-16.1Q352.21-18.15 353.41-19.75 354.61-21.35 356.71-22.28 358.81-23.2 361.41-23.2L361.41-23.2Q363.46-23.2 364.93-22.8 366.41-22.4 366.41-22.4L366.41-22.4 366.51-22.15Q366.51-22.15 366.33-21.3 366.16-20.45 365.93-19.07 365.71-17.7 365.56-16.05L365.56-16.05 363.71-15.9Q363.71-15.9 363.76-16.45 363.81-17 363.81-17.35L363.81-17.35Q363.81-19.15 362.83-19.98 361.86-20.8 359.71-20.8L359.71-20.8Q358.01-20.8 356.83-20 355.66-19.2 355.66-18.05L355.66-18.05Q355.66-16.85 356.68-15.8 357.71-14.75 360.01-13.55L360.01-13.55Q362.71-12.15 364.23-11.03 365.76-9.9 366.38-8.85 367.01-7.8 367.01-6.55L367.01-6.55Q367.01-4.65 365.73-3 364.46-1.35 362.38-0.38 360.31 0.6 357.86 0.6ZM379.7 0.6L379.7 0.6Q376.3 0.6 374.9-0.78 373.5-2.15 373.5-5.45L373.5-5.45 373.5-17.75Q373.5-19.1 372.9-19.65 372.3-20.2 370.65-20.25L370.65-20.25 370.45-20.55 370.7-22.05Q371.9-22.65 373.03-23.43 374.15-24.2 375.03-24.93 375.9-25.65 376.4-26.13 376.9-26.6 376.9-26.6L376.9-26.6 377.9-26.2Q377.9-26.2 377.78-25.25 377.65-24.3 377.5-22.45L377.5-22.45 384.85-22.6 385-22.45 384.55-19.8 377.3-19.95Q377.15-17.6 377.05-14.45 376.95-11.3 376.95-7.45L376.95-7.45Q376.95-4.9 377.83-3.85 378.7-2.8 380.85-2.8L380.85-2.8Q382.1-2.8 383.18-3.25 384.25-3.7 384.25-3.7L384.25-3.7 384.75-2.4Q384.75-2.4 384.15-1.95 383.55-1.5 382.68-0.9 381.8-0.3 380.98 0.15 380.15 0.6 379.7 0.6ZM404.35 0.6L404.35 0.6Q402.55 0.6 401.2 0.33 399.85 0.05 399.12-0.2 398.4-0.45 398.4-0.45L398.4-0.45 398.25-0.8Q398.35-1.35 398.47-2.63 398.6-3.9 398.72-5.3 398.85-6.7 398.85-7.5L398.85-7.5 400.6-7.75Q400.6-4.45 401.7-3.1 402.8-1.75 405.45-1.75L405.45-1.75Q407.35-1.75 408.65-2.6 409.95-3.45 409.95-4.7L409.95-4.7Q409.95-5.55 409.45-6.25 408.95-6.95 407.7-7.8 406.45-8.65 404.15-9.85L404.15-9.85Q401.3-11.3 400-12.8 398.7-14.3 398.7-16.1L398.7-16.1Q398.7-18.15 399.9-19.75 401.1-21.35 403.2-22.28 405.3-23.2 407.9-23.2L407.9-23.2Q409.95-23.2 411.42-22.8 412.9-22.4 412.9-22.4L412.9-22.4 413-22.15Q413-22.15 412.82-21.3 412.65-20.45 412.42-19.07 412.2-17.7 412.05-16.05L412.05-16.05 410.2-15.9Q410.2-15.9 410.25-16.45 410.3-17 410.3-17.35L410.3-17.35Q410.3-19.15 409.32-19.98 408.35-20.8 406.2-20.8L406.2-20.8Q404.5-20.8 403.32-20 402.15-19.2 402.15-18.05L402.15-18.05Q402.15-16.85 403.17-15.8 404.2-14.75 406.5-13.55L406.5-13.55Q409.2-12.15 410.72-11.03 412.25-9.9 412.87-8.85 413.5-7.8 413.5-6.55L413.5-6.55Q413.5-4.65 412.22-3 410.95-1.35 408.87-0.38 406.8 0.6 404.35 0.6ZM434.5 0.6L434.5 0.6Q432.5 0.6 431.37-0.43 430.25-1.45 430.05-3.45L430.05-3.45 429.85-3.5Q428.65-2.3 427.57-1.43 426.5-0.55 425.67-0.08 424.85 0.4 424.35 0.4L424.35 0.4Q422.5 0.4 421.05-0.4 419.6-1.2 418.77-2.6 417.95-4 417.95-5.8L417.95-5.8Q417.95-7.25 418.67-8.35 419.4-9.45 420.6-9.8L420.6-9.8 430.1-12.4 430.15-14.6Q430.15-17.1 429-18.5 427.85-19.9 425.75-19.9L425.75-19.9Q424.35-19.9 422.8-19.25 421.25-18.6 419.75-17.4L419.75-17.4 419.5-17.55 418.9-19.7Q420.2-20.45 421.8-21.28 423.4-22.1 424.85-22.65 426.3-23.2 427.05-23.2L427.05-23.2Q429.25-23.2 430.8-22.43 432.35-21.65 433.17-20.23 434-18.8 434-16.75L434-16.75Q434-16.1 433.87-14.65 433.75-13.2 433.55-11.43 433.35-9.65 433.22-8 433.1-6.35 433.1-5.25L433.1-5.25Q433.1-4.15 433.65-3.55 434.2-2.95 435.15-2.95L435.15-2.95Q436-2.95 436.85-3.38 437.7-3.8 438.15-4.2L438.15-4.2 438.85-3.4Q438.45-2.75 437.77-1.93 437.1-1.1 436.27-0.4 435.45 0.3 434.5 0.6ZM425.2-3L425.2-3Q426.15-3 427.42-3.68 428.7-4.35 429.75-5.4L429.75-5.4 430-10.5 423.2-8.45Q421.75-8 421.75-6.35L421.75-6.35Q421.75-4.95 422.72-3.98 423.7-3 425.2-3ZM440.54 0.6L440.54 0.6 440.74-1.45Q442.19-1.85 442.77-2.48 443.34-3.1 443.44-4.15 443.54-5.2 443.54-6.75L443.54-6.75 443.54-31.3Q443.54-32.55 443.32-33.13 443.09-33.7 442.47-33.85 441.84-34 440.59-33.85L440.59-33.85 440.44-33.95 440.64-35.65Q442.49-35.9 444.34-36.25 446.19-36.6 448.04-37.1L448.04-37.1 448.34-36.45Q448.14-36.1 447.94-34.18 447.74-32.25 447.57-29.13 447.39-26 447.24-22.05 447.09-18.1 447.02-13.7 446.94-9.3 446.94-4.9L446.94-4.9Q446.94-3.4 447.34-2.75 447.74-2.1 448.69-2.1L448.69-2.1 450.44-2.2 450.54-2 450.14 0.15Q449.34 0.1 448.02 0.05 446.69 0 445.69 0L445.69 0Q444.79 0 443.42 0.18 442.04 0.35 440.54 0.6ZM463.69 0.6L463.69 0.6Q460.54 0.6 458.19-0.8 455.84-2.2 454.52-4.67 453.19-7.15 453.19-10.45L453.19-10.45Q453.19-13 454.07-15.3 454.94-17.6 456.49-19.38 458.04-21.15 460.02-22.18 461.99-23.2 464.24-23.2L464.24-23.2Q471.69-23.2 471.69-15.95L471.69-15.95Q471.69-15.3 471.59-14.6 471.49-13.9 471.39-13.5L471.39-13.5 470.74-12.9 456.94-12.9Q456.89-8.45 458.57-5.88 460.24-3.3 463.29-2.88 466.34-2.45 470.49-4.35L470.49-4.35 470.79-4.25 471.34-2.8Q470.34-2.1 468.97-1.3 467.59-0.5 466.19 0.05 464.79 0.6 463.69 0.6ZM457.14-14.75L457.14-14.75 466.19-15.2Q466.94-15.3 467.19-15.55 467.44-15.8 467.44-16.55L467.44-16.55Q467.44-18.55 466.37-19.6 465.29-20.65 463.29-20.65L463.29-20.65Q460.99-20.65 459.29-19.07 457.59-17.5 457.14-14.75ZM482.34 0.6L482.34 0.6Q480.54 0.6 479.19 0.33 477.84 0.05 477.11-0.2 476.39-0.45 476.39-0.45L476.39-0.45 476.24-0.8Q476.34-1.35 476.46-2.63 476.59-3.9 476.71-5.3 476.84-6.7 476.84-7.5L476.84-7.5 478.59-7.75Q478.59-4.45 479.69-3.1 480.79-1.75 483.44-1.75L483.44-1.75Q485.34-1.75 486.64-2.6 487.94-3.45 487.94-4.7L487.94-4.7Q487.94-5.55 487.44-6.25 486.94-6.95 485.69-7.8 484.44-8.65 482.14-9.85L482.14-9.85Q479.29-11.3 477.99-12.8 476.69-14.3 476.69-16.1L476.69-16.1Q476.69-18.15 477.89-19.75 479.09-21.35 481.19-22.28 483.29-23.2 485.89-23.2L485.89-23.2Q487.94-23.2 489.41-22.8 490.89-22.4 490.89-22.4L490.89-22.4 490.99-22.15Q490.99-22.15 490.81-21.3 490.64-20.45 490.41-19.07 490.19-17.7 490.04-16.05L490.04-16.05 488.19-15.9Q488.19-15.9 488.24-16.45 488.29-17 488.29-17.35L488.29-17.35Q488.29-19.15 487.31-19.98 486.34-20.8 484.19-20.8L484.19-20.8Q482.49-20.8 481.31-20 480.14-19.2 480.14-18.05L480.14-18.05Q480.14-16.85 481.16-15.8 482.19-14.75 484.49-13.55L484.49-13.55Q487.19-12.15 488.71-11.03 490.24-9.9 490.86-8.85 491.49-7.8 491.49-6.55L491.49-6.55Q491.49-4.65 490.21-3 488.94-1.35 486.86-0.38 484.79 0.6 482.34 0.6Z" opacity="1" transform="matrix(1,0,0,1,0,0)" fill="#000000" class="slogan-text-1" data-fill-palette-color="secondary" id="text-1"></path></svg></g></svg></g></svg></g></svg></g><g></g></svg></g></svg></g></svg></g><path d="M0 41.215L0 1 192.369 1 192.369 41.215 182.634 41.215 182.634 10.734 9.734 10.734 9.734 41.215 0 41.215M0 205.985L0 246.2 192.369 246.2 192.369 205.985 182.634 205.985 182.634 236.466 9.734 236.466 9.734 205.985 0 205.985" fill="#000000" stroke="transparent" data-fill-palette-color="tertiary"></path></svg></g><defs></defs></svg><rect width="192.3686242637691" height="247.2" fill="none" stroke="none" visibility="hidden"></rect></g></svg></g></svg>